<?xml version="1.0" standalone="no"?>
<!DOCTYPE svg PUBLIC "-//W3C//DTD SVG 1.1//EN" "http://www.w3.org/Graphics/SVG/1.1/DTD/svg11.dtd" >
<svg xmlns="http://www.w3.org/2000/svg">
<metadata></metadata>
<defs>
<font id="VolkswagenRegular" horiz-adv-x="1253" >
<font-face units-per-em="2048" ascent="1638" descent="-410" />
<missing-glyph horiz-adv-x="593" />
<glyph horiz-adv-x="0" />
<glyph horiz-adv-x="2048" />
<glyph unicode=" "  horiz-adv-x="593" />
<glyph unicode="&#x09;" horiz-adv-x="593" />
<glyph unicode="&#xa0;" horiz-adv-x="593" />
<glyph unicode="!" horiz-adv-x="405" d="M111 61q0 39 25.5 67t64.5 28q41 0 67.5 -27t26.5 -63q0 -37 -26.5 -65t-65.5 -28q-37 0 -64.5 25.5t-27.5 62.5zM135 485v953q0 29 22.5 49t45.5 20q27 0 47 -20.5t20 -50.5v-953q0 -29 -19.5 -48t-47.5 -19q-27 0 -47.5 20t-20.5 49z" />
<glyph unicode="&#x22;" horiz-adv-x="559" d="M109 1020l38 455h111l-39 -455h-110zM301 1020l39 455h111l-39 -455h-111z" />
<glyph unicode="#" d="M109 506q10 43 59 43h207l78 377h-201q-25 0 -33 16t-6 33q8 43 57 43h203l92 422q10 45 60 45q12 -2 25.5 -13.5t6.5 -31.5l-94 -422h242l90 422q10 45 55 45q25 0 33 -15.5t4 -29.5l-92 -422h213q23 0 31 -14.5t6 -28.5q0 -18 -16.5 -32.5t-38.5 -14.5l-213 -2 l-80 -377h213q41 0 41 -45q0 -23 -18.5 -37t-43.5 -14h-213l-86 -426q-10 -41 -55 -41q-23 0 -31 14t-6 27l90 432h-242l-90 -432q-10 -47 -53 -41q-41 4 -33 41l84 428h-207q-18 0 -30.5 15t-7.5 36zM465 549h242l79 377h-241z" />
<glyph unicode="$" horiz-adv-x="970" d="M59 156q0 14 9.5 42.5t56.5 28.5q14 0 27 -6l10 -6l16 -10l15 -8l22 -17l53 -26q45 -23 81 -30t85 -7v628l-33 15l-75 28l-13 7q-33 12 -59.5 29.5t-100 83t-73.5 210.5q0 82 41 161t116.5 132t168.5 72l28 4v106q0 35 37 35q12 0 24.5 -10t12.5 -27v-100 q68 0 132.5 -16.5t132 -58.5t67.5 -83q0 -16 -18.5 -42.5t-49.5 -26.5q-6 0 -22 4l-11 6l-20 10l-10 6l-25 17q-35 20 -72 35.5t-71 21.5l-33 6v-500l72 -26q352 -123 352 -393q0 -117 -70.5 -239t-150.5 -161t-123 -52t-80 -13v-90q0 -16 -10.5 -29.5t-24.5 -13.5t-26.5 12 t-12.5 33v86l-65 4q-135 16 -222.5 69.5t-87.5 98.5zM233 1135q0 -23 9.5 -88.5t163.5 -137.5l30 -12l-2 465q-37 -4 -73.5 -26.5t-69.5 -56.5t-45.5 -67.5t-12.5 -76.5zM508 119q72 8 128 50t95 109.5t44 110.5t5 57q0 190 -219 259l-43 14l-10 2v-602z" />
<glyph unicode="%" horiz-adv-x="1511" d="M82 1149q0 143 60.5 220t124 106.5t134.5 29.5q147 0 230.5 -101t83.5 -255q0 -160 -92.5 -256t-229.5 -96q-131 0 -221 98t-90 254zM199 1149q0 -88 29.5 -149.5t75.5 -89t91 -27.5q98 0 133 59t40 69.5t16.5 50.5t11.5 97q0 104 -47 178q-55 80 -152 80q-25 0 -44 -4 t-55 -25.5t-67.5 -86t-31.5 -152.5zM422 23q0 12 2 18l551 1429q14 37 51 37q6 0 32.5 -9t26.5 -48q0 -6 -4 -18l-551 -1428q-10 -23 -27.5 -31t-29.5 -8q-35 0 -43 20.5t-8 37.5zM795 315q0 113 48 196t127 119t152 36q100 0 180 -56.5t109 -148.5q18 -72 19 -146 q0 -162 -88.5 -256t-229.5 -94q-139 0 -228 97t-89 253zM911 315q0 -90 30 -151.5t77 -88t98 -26.5q100 0 135 56.5t47.5 105.5t12.5 111q0 53 -11.5 99t-34 82t-62.5 56.5t-91 20.5q-47 0 -94 -25t-77 -85.5t-30 -154.5z" />
<glyph unicode="&#x26;" horiz-adv-x="1384" d="M90 410q0 88 35 175t98.5 159.5t159.5 134.5l57 34l-18 23l-41 47q-109 135 -109 250q0 68 39 133.5t110 104t171 38.5q74 0 149.5 -24.5t124.5 -91t49 -154.5q0 -92 -43 -154.5t-88 -102.5t-106 -77l-33 -20l369 -443l88 133q59 104 80.5 133t50.5 35q25 6 45 -8t25 -37 q6 -33 -12.5 -76.5t-82.5 -134.5l-108 -151l217 -258q14 -16 14 -39q0 -33 -21.5 -50.5t-47.5 -17.5q-31 0 -50 23l-192 227l-35 -43q-184 -213 -416 -213h-26q-39 0 -140.5 16.5t-207 140.5t-105.5 288zM242 408q0 -133 92 -219.5t223 -86.5q39 0 79 8.5t111.5 42 t145.5 128.5l35 47l-404 485l-71 -41q-109 -72 -160 -166t-51 -198zM412 1237q0 -35 14 -65.5t32.5 -57.5t41.5 -53l51 -64l8 -10l31 19q80 51 112.5 80.5t51 68.5t18.5 74q0 53 -38 94t-74.5 49t-61.5 8h-37q-96 -12 -118.5 -53t-26.5 -55.5t-4 -34.5z" />
<glyph unicode="'" horiz-adv-x="366" d="M109 1020l38 455h111l-39 -455h-110z" />
<glyph unicode="(" horiz-adv-x="395" d="M111 760q0 90 6 176t22 197l29 180l37 168q35 131 80 131q6 0 34.5 -12.5t24.5 -49.5v-8l-6 -24l-10 -48l-21 -98q-70 -336 -69 -612q0 -276 69 -613l21 -98l10 -45l6 -27q4 -45 -22.5 -56t-36.5 -11q-25 0 -43.5 28.5t-36.5 102.5l-37 166l-29 180q-16 104 -22 190.5 t-6 182.5z" />
<glyph unicode=")" horiz-adv-x="395" d="M51 -29l6 33l11 45l20 98q35 168 53.5 319.5t18.5 293.5q0 135 -18.5 286.5t-53.5 325.5l-20 98l-11 48l-4 24l-2 8q-4 37 24.5 49.5t37.5 12.5q23 0 41 -29t31.5 -78t18.5 -73.5t17 -86t17.5 -90t19.5 -128t20.5 -175t6.5 -166.5q0 -61 -4.5 -121.5t-15.5 -188.5 t-25 -204l-37 -172q-18 -80 -24.5 -108.5t-20 -54t-52.5 -25.5q-23 0 -39 15t-16 44z" />
<glyph unicode="*" horiz-adv-x="788" d="M72 1290q0 23 15 45.5t54 22.5q19 0 35 -12l180 -140l-26 236q-4 27 14 46t49 19t50.5 -19.5t15.5 -45.5l-27 -236l180 140q16 12 37 12q37 0 52.5 -24.5t15.5 -45.5q0 -37 -35 -53l-213 -92l207 -88q39 -20 39 -62q0 -16 -14.5 -39.5t-51.5 -23.5q-20 0 -39 12l-176 133 l23 -227q4 -29 -14.5 -48.5t-49.5 -19.5q-63 0 -63 68l24 227l-178 -133q-16 -12 -37 -12q-37 0 -51 23.5t-14 39.5q0 45 39 62l206 88l-213 92q-35 16 -34 55z" />
<glyph unicode="+" horiz-adv-x="1091" d="M63 700q0 23 17.5 38.5t40.5 15.5h373v370q0 25 16 41.5t39 16.5q20 0 36.5 -16.5t16.5 -39.5v-372h373q25 0 39 -16.5t14 -41.5q0 -23 -17.5 -38t-39.5 -15h-371v-379q0 -23 -15.5 -38t-37.5 -15q-23 0 -39 16.5t-16 38.5v379h-375q-53 0 -54 55z" />
<glyph unicode="," horiz-adv-x="362" d="M18 -193q1 13 7 29l120 268q23 43 70 43q16 0 44 -14t28 -61q0 -16 -6 -29l-125 -270q-18 -41 -68 -41q-14 0 -42 13t-28 62z" />
<glyph unicode="-" horiz-adv-x="710" d="M82 537q0 65 57 65h422q29 0 48.5 -19.5t19.5 -45.5q0 -27 -20.5 -46.5t-47.5 -19.5h-420q-23 0 -41 18.5t-18 47.5z" />
<glyph unicode="." horiz-adv-x="348" d="M82 66q0 37 25.5 64.5t64.5 27.5t66.5 -27t27.5 -65q0 -39 -27.5 -65t-64.5 -26q-39 0 -65.5 27t-26.5 64z" />
<glyph unicode="/" horiz-adv-x="827" d="M57 29q0 12 6 28l596 1508q10 27 31 37t29 10q35 0 42 -20.5t7 -39.5q0 -16 -4 -24l-598 -1514q-12 -27 -29.5 -36t-30.5 -9q-35 0 -42 25.5t-7 34.5z" />
<glyph unicode="0" horiz-adv-x="1091" d="M82 737q0 332 110.5 524.5t209 210t113.5 19.5t28 2q199 0 334 -189.5t135 -545.5v-107q-6 -47 -21.5 -204.5t-142.5 -311t-301 -153.5q-197 0 -331 193t-134 562zM238 737q0 -111 9 -193.5t39.5 -183t69.5 -152.5t85 -77t98 -25q100 0 171.5 81t108.5 217.5t37 332.5 q0 201 -37 337t-107.5 214t-164.5 78q-96 0 -165 -76t-104.5 -174t-35.5 -248q0 -16 -2 -49t-2 -49v-33z" />
<glyph unicode="1" horiz-adv-x="1091" d="M231 1409q0 66 66 66h276q29 0 48.5 -21.5t19.5 -56.5v-1338q0 -29 -20 -55q-23 -23 -52 -22q-29 0 -49 21.5t-20 53.5v1289h-205q-27 0 -45.5 18t-18.5 45z" />
<glyph unicode="2" horiz-adv-x="1093" d="M115 1032q0 16 2 27l8 69l2 13l18 63q72 203 199 247t207 44q166 0 227.5 -64.5t71.5 -76t46 -68.5t36 -149q0 -78 -41 -173.5t-131 -226.5l-8 -12l-138 -184l-161 -232l-37 -51l-92 -129h579q29 0 50.5 -18.5t21.5 -49.5q0 -25 -18.5 -43t-45.5 -18h-678l-22 2 q-72 12 -72 64q0 18 13 40l16 27l309 432l31 45l65 95l54 77l26 43l25 39q53 90 77.5 156.5t24.5 114.5q0 37 -18.5 90t-78.5 93t-140 40q-49 0 -121 -25.5t-116 -100.5t-44 -214q0 -33 -20.5 -54.5t-51.5 -21.5q-14 0 -44.5 11.5t-30.5 78.5z" />
<glyph unicode="3" horiz-adv-x="1093" d="M119 319q0 35 16.5 48.5t31.5 19.5t23 6q47 0 70 -69l6 -19l13 -29q68 -160 243 -159h37q29 6 79 15t111.5 79t67.5 124t6 77q0 12 -2 28.5t-18.5 112.5t-186.5 139l-49 8q-55 6 -69.5 12.5t-23.5 29t-9 32.5q0 43 53 60l6 2l47 6q104 16 135 103t31 120q0 117 -39 191.5 t-93 91t-81 16.5q-70 0 -122 -48t-68 -136l-4 -25l-6 -33q-2 -33 -20.5 -53t-49.5 -20t-51.5 22.5t-20.5 69.5q0 37 21.5 122t115 157.5t222.5 72.5q147 0 248.5 -107.5t101.5 -267.5q0 -35 -12.5 -117.5t-108.5 -175.5l-43 -37q154 -55 201 -168.5t47 -191.5 q0 -111 -77 -248t-200 -166.5t-178 -29.5q-174 0 -264 92t-113.5 152.5t-23.5 90.5z" />
<glyph unicode="4" horiz-adv-x="1091" d="M63 455q0 39 29 84l531 891q39 66 112 65q12 0 71.5 -18.5t59.5 -124.5l6 -828h86q27 0 54 -20q16 -16 16 -43q0 -29 -23.5 -46.5t-54.5 -17.5h-84l4 -342q0 -31 -20 -49q-16 -23 -51 -22q-29 0 -49.5 20.5t-20.5 50.5v342h-557h-59q-49 10 -50 58zM242 526h487v850z" />
<glyph unicode="5" horiz-adv-x="1093" d="M98 193q-8 33 8.5 57t51.5 29q27 4 43 -9l37 -32l22 -21q123 -98 240 -98q72 0 136 37t104 104.5t49.5 129t10.5 78.5t1 26q0 35 -11.5 109.5t-90 141t-205.5 66.5q-41 0 -119 -31l-19 -8l-41 -20q-23 -6 -48 10t-29 41l8 61l80 527q10 59 23 71.5t75 12.5h432 q29 0 51.5 -19.5t22.5 -46.5q0 -25 -22.5 -43t-49.5 -18h-397l-68 -441l27 11q72 27 141 26q76 0 166 -37t160.5 -149.5t70.5 -257.5q0 -88 -36.5 -212t-151.5 -214t-264 -90q-96 0 -189.5 37.5t-137.5 75.5t-60.5 58.5t-20.5 37.5z" />
<glyph unicode="6" horiz-adv-x="1093" d="M129 573q0 180 92 364.5t281 399.5l47 52q68 74 88 90t39 16q53 0 64.5 -26.5t11.5 -41.5q0 -16 -7 -28l-16 -19l-119 -114q-29 -27 -66.5 -75t-95 -136t-96.5 -170q23 16 41.5 24.5t67.5 24.5t110 16q145 0 253 -101t123.5 -199.5t17.5 -124t2 -48.5q0 -168 -72 -291 t-152.5 -157.5t-116.5 -41.5t-83 -7q-180 0 -297 160.5t-117 432.5zM274 461q0 -168 74 -258t195 -90q123 0 199.5 91t76.5 257q0 121 -40 206t-104.5 121.5t-133.5 36.5q-68 0 -127.5 -32.5t-99.5 -103t-40 -228.5z" />
<glyph unicode="7" horiz-adv-x="1091" d="M115 1409q0 25 22 45.5t49 20.5h715q37 0 56.5 -18.5t19.5 -45.5q0 -10 -8 -31l-572 -1357q-18 -43 -65 -43q-14 0 -40 11t-26 56q0 8 4 25l541 1271h-623q-29 0 -51 20.5t-22 45.5z" />
<glyph unicode="8" horiz-adv-x="1093" d="M121 446q0 143 74.5 251t191.5 137l-39 24q-158 123 -158 297q0 31 26 167t157 156.5t147.5 21.5t26.5 1h33q20 -4 146 -23.5t151.5 -157.5t25.5 -169q0 -170 -158 -293l-38 -24q115 -29 189.5 -135.5t74.5 -252.5v-57q-6 -27 -21.5 -120t-129 -192.5t-273.5 -99.5 q-141 0 -242.5 72t-133.5 161t-41 138t-9 98zM276 446q0 -104 42 -186t103.5 -115.5t125.5 -33.5q63 0 118.5 29.5t80 68.5t36 63.5t24.5 74.5t13 112q0 133 -76.5 216t-195.5 83q-121 0 -196 -83.5t-75 -228.5zM326 1135q0 -94 63.5 -165t157.5 -71q98 0 142 52.5 t62.5 99.5t18.5 100q0 98 -63.5 165.5t-159.5 67.5q-98 0 -159.5 -69t-61.5 -180z" />
<glyph unicode="9" horiz-adv-x="1093" d="M127 997q0 115 31.5 205t92 159t135.5 102.5t157 33.5q102 0 196.5 -54t143.5 -137t65.5 -181.5t16.5 -227.5q0 -178 -93.5 -364.5t-279.5 -397.5l-47 -53q-68 -72 -88.5 -88.5t-38.5 -16.5q-53 0 -64.5 26t-11.5 40q0 18 6 29l10 12l25 27l92 94q76 76 147.5 181.5 t118.5 199.5q-14 -8 -38.5 -20.5t-50 -21.5t-64.5 -15.5t-68 -6.5q-145 0 -251.5 102.5t-122 200t-17.5 123t-2 49.5zM272 1001q0 -121 40 -201.5t103.5 -117.5t137.5 -37q66 0 126 34t88 82t37 90t13 85t4 80q0 160 -77.5 253t-192.5 93q-123 0 -201 -95.5t-78 -265.5z" />
<glyph unicode=":" horiz-adv-x="378" d="M111 66q0 37 25.5 64.5t64.5 27.5t66.5 -27t27.5 -65q0 -39 -27.5 -65t-64.5 -26q-39 0 -65.5 27t-26.5 64zM111 770q0 37 26.5 63.5t65.5 26.5q37 0 65.5 -26.5t28.5 -63.5q0 -39 -28.5 -65.5t-65.5 -26.5q-39 0 -65.5 26.5t-26.5 65.5z" />
<glyph unicode=";" horiz-adv-x="411" d="M47 -193q0 13 6 29l121 268q23 43 70 43q16 0 43.5 -14t27.5 -61q0 -16 -6 -29l-125 -270q-18 -41 -67 -41q-14 0 -42 13t-28 62zM145 772q0 39 28 64.5t67 25.5q37 0 63.5 -26.5t26.5 -65.5q0 -33 -27 -61.5t-63 -28.5q-41 0 -68 26.5t-27 65.5z" />
<glyph unicode="&#x3c;" horiz-adv-x="1079" d="M109 737l862 490v-127l-658 -363l658 -362v-127z" />
<glyph unicode="=" horiz-adv-x="1093" d="M61 813q0 23 19 39t39 16h852q23 0 39 -14t16 -39q0 -23 -14.5 -39t-38.5 -16h-856q-23 0 -39.5 16.5t-16.5 36.5zM63 578q0 25 18 40t38 15h852q23 0 41 -16.5t18 -38.5q0 -20 -16.5 -37t-40.5 -17h-856q-23 0 -38.5 15.5t-15.5 38.5z" />
<glyph unicode="&#x3e;" horiz-adv-x="1079" d="M109 248v127l657 362l-657 363v127l862 -490z" />
<glyph unicode="?" horiz-adv-x="933" d="M53 1212q0 47 67.5 171t317.5 124q186 0 301 -105.5t115 -266.5q0 -16 -1 -30.5t-17.5 -92.5t-94 -156t-198.5 -104l-43 -9v-262q0 -25 -18.5 -45t-47.5 -20q-31 0 -51.5 18.5t-20.5 46.5v295v31q6 37 41 55l23 8l16 4l23 5l39 6q78 20 124 66t57 100.5t11 85.5 q0 104 -68.5 168.5t-185.5 64.5q-31 0 -108.5 -11t-120.5 -108l-6 -18l-6 -21l-6 -18q-8 -47 -36 -59.5t-48 -6.5q-57 14 -58 84zM344 57q0 37 25.5 65t62.5 28q41 0 67.5 -26t26.5 -63t-26.5 -63.5t-65.5 -26.5q-37 0 -63.5 24.5t-26.5 61.5z" />
<glyph unicode="@" horiz-adv-x="1570" d="M115 737q0 264 121.5 430t250.5 242t212 86t107.5 10h39.5q270 0 445 -177t175 -458q0 -53 -20.5 -189t-113.5 -253t-155.5 -126t-84.5 -9q-78 0 -129 53t-43 127q-12 -41 -63.5 -100.5t-147.5 -59.5q-47 0 -148.5 47.5t-101.5 339.5l8 74q20 131 71.5 228.5t129 153.5 t153.5 56q117 0 174 -112l11 -23l18 127l98 -2l-80 -446l-28 -185q-2 -14 -3 -30.5t-1 -24.5q0 -37 15 -89t83 -52q14 0 38.5 9t47.5 27.5t62.5 66.5t65.5 117t35 131t11 87t2 57q0 244 -144.5 396.5t-371.5 152.5q-55 0 -190.5 -21.5t-288 -213t-152.5 -449.5 q0 -94 41 -258t203 -295t364 -131q86 0 162 20.5t156 69.5l102 74q66 55 115 115l47 -54l-53 -59q-121 -123 -255 -183.5t-282 -60.5q-276 0 -473.5 185.5t-215 347.5t-18.5 182.5t-1 48.5zM567 594q0 -37 7.5 -71t31 -83t107.5 -49q55 0 90 33t55.5 69.5t37.5 86t28.5 93.5 t19.5 93l4 22l13 84q6 43 6 78q0 76 -44 125t-102 49q-74 0 -126 -65.5t-78.5 -146.5t-35 -132t-11.5 -92t-3 -94z" />
<glyph unicode="A" d="M27 47q0 21 8 39l485 1311q33 92 98 92q25 0 47.5 -7t36 -24.5t29.5 -60.5l488 -1311q8 -23 8 -43v-12q-4 -8 -12.5 -29.5t-53.5 -21.5q-23 0 -39 14q-16 10 -26 35l-117 297h-707l-114 -297q-8 -20 -25.5 -34.5t-42.5 -14.5q-43 0 -59 40q-4 16 -4 27zM313 449h627 l-313 858z" />
<glyph unicode="B" horiz-adv-x="1097" d="M141 70v1337q0 68 78 68h301q152 0 260.5 -87.5t123 -173.5t14.5 -120q0 -195 -168 -279l-45 -18q80 0 152.5 -45t122.5 -124t50 -196q0 -39 -17.5 -137t-136 -196.5t-286.5 -98.5h-371q-78 0 -78 70zM281 127h288q131 0 224.5 87t93.5 214q0 123 -93.5 211t-222.5 88 h-290v-600zM285 838h186q123 0 211 73.5t88 184.5q0 100 -79 175t-191 75h-215v-508z" />
<glyph unicode="C" horiz-adv-x="1239" d="M82 719v57.5t23.5 209.5t193.5 345t418 166q98 0 181 -26.5t141.5 -67.5t80 -70.5t21.5 -54.5q0 -6 -11.5 -39t-56.5 -33q-23 0 -49 21l-18 16q-55 51 -106.5 78t-107 36t-92.5 9q-178 0 -306 -140.5t-145.5 -293t-17.5 -205.5v-51.5t22.5 -164.5t150.5 -272t321 -128 q39 0 108.5 9t157.5 62l4 4l56 39q41 29 61 29q6 0 36 -10.5t30 -63.5q0 -23 -12.5 -40t-34 -34.5t-64.5 -45t-138 -54t-204 -26.5q-279 0 -461 199.5t-182 539.5z" />
<glyph unicode="D" horiz-adv-x="1294" d="M141 68l2 1341q0 43 45 61l25 5h391q55 0 187.5 -24t279 -218.5t146.5 -478.5q0 -129 -45.5 -314.5t-201 -312.5t-382.5 -127h-367q-80 0 -80 68zM281 127h299q199 0 321.5 131t140 286.5t17.5 211.5q0 207 -86 356.5t-191.5 193.5t-193.5 44h-307v-1223z" />
<glyph unicode="E" horiz-adv-x="897" d="M141 80v1321q0 31 21.5 52.5t52.5 21.5h512q29 0 47.5 -18.5t18.5 -45.5q0 -29 -20.5 -47t-47.5 -18h-438v-545h418q27 0 48 -18.5t21 -47.5q0 -27 -19.5 -46t-45.5 -19h-424v-541h465q27 0 46 -18.5t19 -47.5q0 -25 -18.5 -44t-46.5 -19h-537q-72 0 -72 80z" />
<glyph unicode="F" horiz-adv-x="823" d="M141 53v1348q0 74 84 74h523q27 0 45 -18.5t18 -45.5q0 -29 -18.5 -47t-49.5 -18h-456v-547h407q27 0 46.5 -19.5t19.5 -46.5q0 -25 -19.5 -44t-46.5 -19h-411v-617q0 -29 -18.5 -49t-49.5 -20t-52.5 19t-21.5 50z" />
<glyph unicode="G" horiz-adv-x="1390" d="M82 719q0 82 32.5 272.5t201.5 347t415 156.5q45 0 119 -9t176 -54.5t150.5 -90.5t48.5 -79q-4 -35 -24.5 -51.5t-45.5 -16.5t-41 14l-8 6l-27 21l-26 20q-72 51 -129.5 76t-108.5 33t-90 8q-188 0 -317 -131t-150.5 -268t-24 -188.5t-2.5 -57.5q0 -49 14.5 -182 t114 -261t211 -153t177.5 -25q193 0 313.5 136.5t120.5 378.5v81h-273q-29 0 -48 19.5t-19 46.5t21.5 45t47.5 18h283q68 0 95.5 -23.5t33.5 -84.5v-80q0 -33 -3 -68.5t-27.5 -181t-172 -279.5t-372.5 -134q-76 0 -223.5 30.5t-276.5 186t-147.5 310.5t-18.5 212z" />
<glyph unicode="H" horiz-adv-x="1384" d="M141 51v1368q0 27 21 51q25 20 49 21q31 0 50.5 -21.5t19.5 -50.5v-602h823v602q0 29 21.5 50.5t48.5 21.5q25 0 49 -21q20 -25 20 -51v-1368q0 -29 -20.5 -49t-51.5 -20q-29 0 -48 19t-19 48v647h-823v-647q0 -27 -18.5 -47t-49.5 -20q-29 0 -50.5 19t-21.5 50z" />
<glyph unicode="I" horiz-adv-x="421" d="M141 49v1368q0 31 20.5 51.5t49.5 20.5q31 0 50.5 -22.5t19.5 -49.5v-1368q0 -29 -18.5 -49t-49.5 -20q-29 0 -50.5 19t-21.5 50z" />
<glyph unicode="J" horiz-adv-x="722" d="M-39 129q0 63 62 64q18 -2 36 -13l13 -6l6 -4l45 -33l27 -16q55 -29 104 -29q27 0 74 16.5t79.5 60.5t32.5 124v35v1095q0 31 21.5 51.5t48.5 20.5q31 0 51.5 -21.5t20.5 -50.5v-1071l-2 -51q-12 -145 -99.5 -234.5t-218.5 -89.5q-82 0 -162 35t-109.5 62.5t-29.5 54.5z " />
<glyph unicode="K" horiz-adv-x="1136" d="M141 53v1370q0 27 19.5 48.5t50.5 21.5q29 0 49.5 -18.5t20.5 -51.5v-583l692 620q10 10 25.5 18.5t33.5 8.5q29 0 46.5 -19.5t17.5 -46.5q0 -33 -23 -49l-663 -592l708 -680q25 -27 27 -51q1 -4 1 -9q0 -24 -20 -42q-18 -18 -42 -19q-5 0 -11 1q-27 2 -51 26l-739 713 v-666q0 -29 -21.5 -50t-50.5 -21q-27 0 -48.5 19t-21.5 52z" />
<glyph unicode="L" horiz-adv-x="747" d="M141 0l23 27l-23 59v1333q0 31 23.5 52.5t48.5 21.5q31 0 50.5 -21.5t19.5 -50.5v-1290h387q31 0 54.5 -19.5t23.5 -48.5q0 -25 -19.5 -44t-50.5 -19h-537z" />
<glyph unicode="M" horiz-adv-x="1738" d="M80 41l2 35l221 1319q6 41 36 68.5t71 27.5q9 1 16 1q78 0 104 -89l338 -1174l340 1174q26 89 105 89q8 0 16 -1q41 0 69.5 -26.5t35.5 -69.5l221 -1319l4 -35q0 -25 -20.5 -41t-51.5 -16q-8 0 -36.5 9t-34.5 56l-193 1292l-387 -1308q-12 -41 -33.5 -48.5t-36.5 -7.5 q-49 0 -65 56l-387 1308l-191 -1292q-10 -49 -37.5 -57t-38.5 -8q-29 0 -48 17t-19 40z" />
<glyph unicode="N" horiz-adv-x="1376" d="M141 55v1368q0 29 22.5 50.5t51.5 21.5q39 0 57 -31l824 -1222v1177q0 29 20.5 51.5t48.5 22.5q29 0 49.5 -21.5t20.5 -52.5v-1370l-6 -29l-12 -18q-23 -25 -54 -25q-37 0 -57 33l-825 1225v-1180q0 -29 -18.5 -49t-49.5 -20t-51.5 18t-20.5 51z" />
<glyph unicode="O" horiz-adv-x="1413" d="M82 737q0 342 179 549t441 207q63 0 208 -31.5t283 -230.5t138 -494q0 -342 -179 -547.5t-445 -205.5q-264 0 -444.5 205.5t-180.5 547.5zM240 737q0 -297 129 -464t329 -167q55 0 167 26t210.5 183.5t98.5 421.5q0 262 -99.5 421t-210 184.5t-166.5 25.5 q-201 0 -329.5 -167t-128.5 -464z" />
<glyph unicode="P" horiz-adv-x="1075" d="M141 53v1348q0 74 92 74h338q176 0 301 -100.5t144.5 -198t21.5 -111.5t2 -45q0 -41 -22.5 -146.5t-147.5 -204t-303 -98.5h-286v-518q0 -27 -20.5 -49t-49.5 -22q-27 0 -48.5 21t-21.5 50zM285 698h284q63 0 124 25t108 71t71.5 105t24.5 123q0 133 -95 230.5t-233 97.5 h-284v-652z" />
<glyph unicode="Q" horiz-adv-x="1417" d="M82 737q0 342 179 549t441 207q63 0 209 -31.5t283 -229.5t137 -495q0 -145 -28.5 -252t-94.5 -211l166 -170q20 -25 21 -49v-5q0 -22 -15 -40q-18 -20 -45 -20t-47 20l-155 160q-121 -133 -224.5 -155.5t-135.5 -26.5t-73 -4q-260 0 -439 206.5t-179 546.5zM240 737 q0 -262 99 -420.5t208.5 -184.5t161.5 -26q205 0 327 160l-141 144q-18 23 -18 47q0 31 22.5 50t42.5 19q25 0 43 -18l125 -129q43 109 54.5 202t11.5 171q0 256 -101.5 411.5t-211 180t-165.5 24.5q-201 0 -329.5 -167t-128.5 -464z" />
<glyph unicode="R" horiz-adv-x="1069" d="M141 51v1352q0 45 43 65l31 7h342q162 0 276.5 -86t138 -185.5t23.5 -159.5q0 -172 -126 -279.5t-337 -107.5l-81 7l540 -574q18 -18 19 -45q0 -14 -11.5 -38.5t-70.5 -24.5q-8 0 -18.5 5t-20.5 15l-606 664v-617q0 -29 -20.5 -49t-49.5 -20q-31 0 -51.5 20t-20.5 51z M283 782h297q115 0 192.5 84t77.5 201q0 115 -90 197t-211 82h-266v-564z" />
<glyph unicode="S" horiz-adv-x="970" d="M59 154l2 22q16 51 66 51q14 0 27 -6l10 -6l16 -10l13 -8l24 -17l53 -26q96 -43 183 -43q96 0 169.5 45t116.5 132t43 158q0 176 -237 263l-27 8l-86 31l-51 18q-80 31 -115 50.5t-110.5 87t-75.5 212.5q0 84 41 162t136 145.5t261 67.5q74 0 134.5 -18.5t117.5 -53.5 q70 -47 70 -86q0 -16 -17.5 -41.5t-48.5 -25.5q-20 0 -55 18l-10 6l-25 17l-22 12q-70 37 -102 41t-60 4q-78 0 -131 -33q-135 -72 -136 -196q0 -84 54.5 -144.5t185.5 -109.5l94 -37l11 -4q354 -125 354 -389q0 -117 -65.5 -233t-166 -175t-227.5 -59q-100 0 -183 19.5 t-140.5 54t-74 53t-16.5 43.5z" />
<glyph unicode="T" horiz-adv-x="872" d="M0 1413q0 25 18 43.5t45 18.5h744q29 0 47 -18.5t18 -47.5q0 -27 -19 -45t-48 -18h-303v-1291q0 -29 -20.5 -51t-49.5 -22q-27 0 -48.5 21.5t-21.5 51.5v1291h-301q-27 0 -44 19t-17 48z" />
<glyph unicode="U" horiz-adv-x="1382" d="M141 504v913q0 27 21 51q25 20 49 21q31 0 50.5 -21.5t19.5 -50.5v-917q0 -158 87 -262.5t186 -121t138 -16.5q37 0 137.5 16.5t186.5 120t86 263.5v917q0 29 21.5 50.5t50.5 21.5q27 0 47 -22.5t20 -49.5v-913q0 -207 -118.5 -344t-248 -158.5t-182.5 -21.5t-184 21.5 t-249 157.5t-118 345z" />
<glyph unicode="V" horiz-adv-x="1140" d="M20 1421q0 8 5.5 26.5t25 31t41.5 12.5q16 0 35 -9t31 -50l415 -1211l408 1211q14 41 33.5 50t36.5 9q49 0 59 -26.5t10 -45.5q0 -16 -6 -33l-467 -1327q-14 -45 -29.5 -60t-48.5 -15q-31 0 -45 15t-30 60l-467 1327q-6 18 -7 35z" />
<glyph unicode="W" horiz-adv-x="1662" d="M51 1421q0 57 53 70q11 2 21 2q58 0 68 -70l200 -1282l367 1295q6 23 27.5 40t43.5 17q37 0 62 -37l8 -20l369 -1295l200 1282q4 29 24 53q15 18 42 17q9 0 20 -2q55 -12 56 -70q0 -16 -2 -24l-224 -1323q-14 -92 -94 -92q-109 0 -129 75l-332 1205l-331 -1205 q-20 -75 -126 -75h-3q-39 0 -63.5 24.5t-33.5 67.5l-221 1323q-2 8 -2 24z" />
<glyph unicode="X" horiz-adv-x="1216" d="M25 45q0 24 18 49l481 697l-413 591l-11 23q-8 27 7.5 52.5t48.5 33.5q5 1 10 1q37 0 63 -42l379 -559l381 559q27 42 64 42q5 0 10 -1q27 -6 43 -24.5t16 -43.5q0 -6 -4 -18l-12 -23l-414 -591l484 -697q16 -23 16 -49q0 -31 -22.5 -48t-45.5 -17q-35 0 -61 38l-455 662 l-454 -662q-26 -38 -60 -38h-2q-23 0 -45 18t-22 47z" />
<glyph unicode="Y" horiz-adv-x="1005" d="M12 1409q-3 10 -3 20q0 17 9 33q15 23 45 27q7 1 13 1q24 0 47 -17l20 -23l361 -612l360 612q6 14 21 23q21 18 44 18q8 0 15 -2q29 -4 43 -27q9 -15 9 -33q0 -9 -3 -20l-8 -20l-412 -697v-637q0 -51 -27.5 -62t-43.5 -11q-49 0 -66 45l-4 28v637l-412 697z" />
<glyph unicode="Z" horiz-adv-x="1163" d="M70 86q0 24 18 49l791 1215h-713q-27 0 -45.5 18t-18.5 43q0 27 18.5 45.5t45.5 18.5h731h92l21 -2q61 0 61 -50q0 -18 -8 -32l-23 -39l-800 -1225h782q35 0 57 -21q20 -14 21 -43q0 -25 -22.5 -44t-55.5 -19h-823q-74 0 -101.5 27.5t-27.5 58.5z" />
<glyph unicode="[" horiz-adv-x="436" d="M111 -2v1479l4 22q20 45 59 45h145q27 0 45.5 -18.5t18.5 -42.5q0 -25 -19.5 -43.5t-46.5 -18.5h-63v-1368h63q27 0 45 -18q20 -14 21 -43q0 -20 -18.5 -41t-45.5 -21h-145q-39 0 -59 45z" />
<glyph unicode="\" horiz-adv-x="585" d="M109 1475h110l258 -1475h-110z" />
<glyph unicode="]" horiz-adv-x="436" d="M53 -6q0 27 21 41q18 18 45 18h65v1368h-65q-27 0 -46.5 18.5t-19.5 45.5q0 23 18.5 41t47.5 18h143q39 0 60 -45l4 -22v-1479l-4 -23q-20 -45 -60 -45h-143q-29 0 -47.5 20.5t-18.5 43.5z" />
<glyph unicode="^" horiz-adv-x="1196" d="M109 360l489 863l489 -863h-126l-363 658l-362 -658h-127z" />
<glyph unicode="_" horiz-adv-x="954" d="M109 0h737v-51h-737v51z" />
<glyph unicode="`" horiz-adv-x="434" d="M-6 1364q0 45 28.5 56.5t45.5 11.5q10 -1 26 -5l295 -114q31 -14 40 -33.5t9 -36.5q0 -49 -43 -61q-12 -6 -28 -6q-12 0 -29 6l-295 112q-27 12 -38 33t-11 37z" />
<glyph unicode="a" horiz-adv-x="1146" d="M82 553q0 217 108.5 366.5t201.5 166t111.5 19.5t43.5 3q94 0 178 -41t139 -113v80q0 33 22.5 53.5t53.5 20.5q29 0 47.5 -20.5t18.5 -49.5v-989q0 -31 -19.5 -50t-48.5 -19q-31 0 -53.5 22.5t-22.5 56.5v101q-98 -178 -315 -178q-31 0 -50.5 4t-94 17t-176 124 t-123 233.5t-21.5 192.5zM231 551q0 -223 94.5 -337t245.5 -114q147 0 224 115t77 350q0 123 -16 188.5t-59 123t-103.5 87t-130.5 29.5q-145 0 -214.5 -88t-93.5 -166.5t-24 -187.5z" />
<glyph unicode="b" horiz-adv-x="1144" d="M141 51v1471q0 31 20.5 51t53.5 20q29 0 48.5 -21.5t19.5 -49.5v-586q57 82 144 126t183 44q92 0 177 -40t146.5 -117t95.5 -177t34 -219q0 -227 -102.5 -377.5t-208 -173t-158.5 -22.5q-102 0 -184 45t-129 122v-96q0 -27 -21.5 -50.5t-50.5 -23.5q-27 0 -47.5 22.5 t-20.5 51.5zM279 539q0 -188 58 -288.5t141 -122.5t126 -22q129 0 218 97.5t89 269.5v84v27v22q-4 16 -8 55t-21.5 91.5t-75.5 141.5t-214 89q-115 0 -188.5 -70.5t-99 -152.5t-25.5 -221z" />
<glyph unicode="c" horiz-adv-x="905" d="M82 541q0 256 139 411.5t346 155.5q106 0 191.5 -32t85.5 -83q0 -25 -19.5 -48t-52.5 -23q-20 0 -37 8l-28 14l-15 6l-24 11q-47 20 -88 20q-20 -2 -33 -2q-119 0 -202 -94t-95 -186.5t-12 -115v-34.5v-44.5t18 -114.5t107.5 -185t199.5 -88q37 0 78 12l39 16l18 9l23 8 l31 14q18 8 51 -6t33 -57q0 -29 -18.5 -49.5t-41 -32t-74 -29.5t-137.5 -18q-186 0 -314 117.5t-146.5 237.5t-20.5 144.5t-2 57.5z" />
<glyph unicode="d" horiz-adv-x="1148" d="M82 543q0 51 18.5 159.5t86 208t129 129t89 40t66.5 18.5t88 8q100 0 181 -47t128 -131v594q0 29 20.5 49t49.5 20q31 0 50.5 -21.5t19.5 -47.5v-1469q0 -31 -20.5 -51t-47.5 -20q-31 0 -53.5 25.5t-22.5 58.5v102q-53 -88 -140 -136t-187 -48q-86 0 -166 35.5t-164 131 t-103.5 214t-20.5 141t-1 37.5zM231 532l7 -73q18 -102 52 -175t104.5 -121t152.5 -48q117 0 193.5 69.5t102 140t25.5 183.5q0 53 -6 121q0 70 -12 111.5t-69.5 139t-223.5 97.5q-111 0 -218.5 -99.5t-107.5 -345.5z" />
<glyph unicode="e" horiz-adv-x="1087" d="M82 549q0 47 16.5 159.5t114.5 232.5t201.5 143.5t150.5 23.5q168 0 291 -119t140.5 -234.5t20.5 -137t3 -48.5q0 -51 -22 -68.5t-83 -17.5h-675q0 -51 23.5 -142t108.5 -160.5t206 -69.5q35 0 81 8t91 31.5t106 78.5l25 23q18 18 51 22q31 4 51.5 -18.5t20.5 -56.5 q0 -31 -36 -67t-114 -80t-150.5 -58t-132.5 -14q-188 0 -317 120.5t-150.5 254.5t-21.5 194zM238 602h630l-4 35q-12 84 -35.5 143.5t-61.5 105.5t-93.5 71.5t-118.5 25.5q-74 0 -139.5 -36t-98 -90t-50 -102t-25.5 -106z" />
<glyph unicode="f" horiz-adv-x="489" d="M8 1034q0 25 16 41.5t39 16.5h107v301q0 92 53 147t144 55h82q37 0 61.5 -18t24.5 -49q0 -27 -19.5 -43.5t-50.5 -22.5l-55 4h-19q-78 0 -78 -63v-21l-2 -59v-231h133q27 0 48.5 -18.5t21.5 -45.5q0 -20 -16 -41q-23 -18 -49 -18h-136v-916q0 -33 -22 -51 q-17 -22 -46 -22h-3q-29 0 -48.5 21.5t-19.5 51.5v916h-111q-55 0 -55 65z" />
<glyph unicode="g" horiz-adv-x="1142" d="M82 528q0 133 39 243t107.5 185.5t149.5 111.5t169 36q98 0 182 -42t139 -126v100q0 33 22.5 53.5t45.5 20.5q27 0 46 -21.5t19 -50.5v-1011q0 -387 -210.5 -433.5t-272.5 -46.5q-88 0 -179 30t-143.5 69t-66.5 60.5t-14 47.5q0 33 25.5 49.5t43.5 16.5q27 0 56 -27 l18 -14l29 -21l43 -26q51 -29 99 -41.5t101 -12.5q117 0 207 63.5t102.5 116t20.5 94.5t8 77t-1 64.5t-1 53.5q-49 -82 -136 -129t-191 -47q-37 0 -128.5 15.5t-190.5 128t-116.5 219t-19.5 132.5t-2 62zM233 532q0 -164 55.5 -265t131.5 -133t137 -32q92 0 169 52.5 t105.5 120t32.5 102.5t4 149q0 209 -54 310.5t-135 121t-130 19.5q-66 0 -142.5 -40t-125 -142.5t-48.5 -262.5z" />
<glyph unicode="h" horiz-adv-x="1110" d="M141 47v1471q0 29 23.5 50t48.5 21q31 0 49.5 -20.5t18.5 -50.5v-568q68 102 156.5 127t135.5 25q14 0 32 -2t103 -14.5t173 -121t88 -278.5v-639q0 -29 -20.5 -49.5t-51.5 -20.5q-27 0 -47.5 20.5t-20.5 49.5v649q0 113 -57 175.5t-111.5 85t-107.5 22.5 q-106 0 -189 -79t-83 -198v-655q0 -29 -19.5 -48t-48.5 -19q-31 0 -51.5 18t-20.5 49z" />
<glyph unicode="i" horiz-adv-x="425" d="M119 1337q0 43 27.5 71t66.5 28q41 0 67.5 -30t26.5 -65q0 -39 -28.5 -67.5t-65.5 -28.5q-35 0 -64.5 25.5t-29.5 66.5zM143 53v985q0 31 21.5 50.5t52.5 19.5q29 0 47.5 -20.5t18.5 -49.5v-985q0 -27 -19.5 -49t-50.5 -22q-29 0 -49.5 22t-20.5 49z" />
<glyph unicode="j" horiz-adv-x="419" d="M113 1337q0 43 27.5 72t66.5 29q41 0 67.5 -30t26.5 -67q0 -41 -27.5 -68.5t-66.5 -27.5t-66.5 27.5t-27.5 64.5zM141 -373v1411q0 33 22.5 53.5t47.5 20.5q29 0 48.5 -21.5t19.5 -50.5v-1413q0 -29 -19.5 -50t-50.5 -21q-27 0 -47.5 19t-20.5 52z" />
<glyph unicode="k" horiz-adv-x="933" d="M141 53v1473q0 33 23.5 52t48.5 19q31 0 49.5 -22.5t18.5 -50.5v-813l467 374q31 25 57 25q23 0 42 -21.5t19 -44.5q0 -33 -32 -57l-472 -362l539 -521q25 -25 25 -55q0 -9 -2 -18q-6 -23 -23.5 -36t-40.5 -13t-35 10l-30 24l-514 512v-475q0 -31 -20.5 -51t-49.5 -20 t-47 20q-23 18 -23 51z" />
<glyph unicode="l" horiz-adv-x="421" d="M141 55v1469q0 27 21 51q25 20 49 20q25 0 49 -20q20 -25 21 -51v-1465q0 -31 -19.5 -55t-50.5 -24q-27 0 -48.5 21t-21.5 54z" />
<glyph unicode="m" horiz-adv-x="1716" d="M141 51v985q0 31 22.5 51.5t47.5 20.5q31 0 50.5 -23.5t19.5 -50.5v-65q6 10 13 20t35.5 41t89 55.5t134.5 24.5q33 0 93.5 -12.5t121.5 -63.5t92 -127q10 20 26.5 44t79 89.5t226.5 65.5q33 0 128 -15.5t175 -111.5t80 -254v-672q0 -27 -18.5 -49t-49.5 -22 q-27 0 -48 19t-21 52v674q0 100 -70 178t-184 78q-96 0 -175 -70.5t-79 -185.5v-674q0 -31 -19.5 -51t-48.5 -20t-49 22.5t-20 48.5v674q0 109 -74 182.5t-184 73.5q-106 0 -180 -73.5t-74 -180.5v-676q0 -31 -19.5 -51t-52.5 -20q-27 0 -47.5 20t-20.5 49z" />
<glyph unicode="n" horiz-adv-x="1110" d="M141 47v993q0 29 23.5 50.5t48.5 21.5q31 0 50.5 -23.5t19.5 -50.5v-84q68 102 156.5 127t142.5 25q18 0 113.5 -14.5t184.5 -124t89 -281.5v-639q0 -29 -20.5 -49.5t-51.5 -20.5q-27 0 -47.5 20.5t-20.5 49.5v649q0 113 -57 175.5t-111.5 85t-107.5 22.5 q-106 0 -189 -81t-83 -196v-655q0 -29 -19.5 -48t-48.5 -19q-31 0 -51.5 18t-20.5 49z" />
<glyph unicode="o" horiz-adv-x="1103" d="M82 547l6 92q29 217 159 343t306 126q174 0 304 -126t147.5 -258t17.5 -179q0 -45 -15.5 -161t-112.5 -237.5t-194.5 -144t-148.5 -22.5q-176 0 -306 126.5t-157 346.5zM236 547l2 -70q16 -156 79.5 -247t135 -109.5t104.5 -18.5q121 0 206 97.5t95 197t10 119v29.5v24 q0 14 -11 119t-95 201t-207 96q-31 0 -102.5 -18.5t-135 -107.5t-77.5 -247q-4 -16 -4 -35.5v-29.5z" />
<glyph unicode="p" horiz-adv-x="1144" d="M141 -379v1415q0 27 20.5 49.5t49.5 22.5q27 0 48.5 -22.5t21.5 -53.5v-100q53 84 140 130t185 46q90 0 173 -37t183.5 -152.5t100.5 -361.5q0 -55 -4 -96t-17.5 -93.5t-34 -100.5t-65.5 -116.5t-140 -118.5t-200 -50q-96 0 -180 42t-141 126v-529q0 -29 -21.5 -50.5 t-48.5 -21.5q-25 0 -49 21q-21 24 -21 51zM270 537q0 -207 88 -317.5t234 -110.5q129 0 214 96t95 195.5t12 119t2 39.5q0 63 -22.5 171t-104 183.5t-190.5 75.5q-76 0 -158 -46t-124 -120.5t-42 -206.5z" />
<glyph unicode="q" horiz-adv-x="1148" d="M82 545q0 55 16.5 165.5t97 212t169 143.5t180.5 42q98 0 180 -42t139 -126v92q0 31 22.5 53.5t53.5 22.5q27 0 47.5 -20.5t20.5 -49.5v-1415q0 -27 -19.5 -50.5t-50.5 -23.5q-27 0 -48.5 21.5t-21.5 52.5v537q-55 -84 -141 -130t-184 -46q-100 0 -188.5 44t-180.5 172 t-92 345zM233 555l5 -76q18 -180 102 -276.5t207 -96.5q45 0 129 27t141 128t57 284q0 53 -6 114q0 72 -27.5 131.5t-97 127t-192.5 67.5q-74 0 -139.5 -36t-103.5 -97t-56.5 -132t-18.5 -165z" />
<glyph unicode="r" horiz-adv-x="522" d="M141 49v985q0 29 20.5 49.5t51.5 20.5t51.5 -22.5t20.5 -55.5l-9 -115q6 16 11.5 27.5t27 50.5t64.5 76t82 45q12 2 22 2q31 0 53 -18q28 -24 29 -66q0 -47 -78 -76l-22 -10q-98 -43 -140 -128t-42 -263l-4 -502q0 -29 -19.5 -49t-50.5 -20q-27 0 -47.5 20t-20.5 49z" />
<glyph unicode="s" horiz-adv-x="911" d="M51 184q1 12 9 44q10 38 61 38q16 0 39 -14l10 -8l41 -35q43 -41 90 -63.5t91 -28.5t63 -6q106 0 174.5 56t68.5 130q0 80 -53 113.5t-75.5 44t-57.5 26.5l-98 41q-80 33 -129 56.5t-121 69.5t-72 167q0 92 88 192.5t275 100.5q35 0 71.5 -5t65.5 -12.5t95.5 -33 t102.5 -61.5q29 -29 28 -61q0 -7 -1 -15q-12 -55 -65 -56q-16 0 -31 8l-37 23l-27 16q-102 68 -202 68q-23 0 -33 -2q-70 0 -114 -33t-55 -76t-11 -53q0 -53 50 -84t92 -49t87 -35l47 -20q55 -23 97 -42.5t99.5 -55t93.5 -99t36 -133.5q0 -133 -116 -223t-277 -90 q-37 0 -91.5 8t-97.5 26.5t-73.5 36t-60.5 37.5q-30 22 -52 46q-24 28 -25 46z" />
<glyph unicode="t" horiz-adv-x="477" d="M16 1028q0 25 21.5 44.5t46.5 19.5h90v260q0 31 20.5 54.5t49.5 23.5q31 0 51 -22t20 -54v-262h95q25 0 49 -21q16 -20 16 -43q0 -25 -20.5 -42t-46.5 -17h-93v-916q0 -27 -20.5 -49t-50.5 -22q-29 0 -48.5 20.5t-19.5 48.5v918h-94q-29 0 -47.5 17.5t-18.5 41.5z" />
<glyph unicode="u" horiz-adv-x="1116" d="M141 401v635q0 33 23 51q18 20 47 21q31 0 49 -23q20 -18 21 -49v-637q0 -135 55 -204.5t132 -80t91 -10.5q16 0 146.5 18.5t130.5 276.5v637q0 31 20 49q18 23 49 23q29 0 49.5 -21.5t20.5 -50.5v-635q0 -203 -106.5 -311t-309.5 -108q-205 0 -311.5 108t-106.5 311z " />
<glyph unicode="v" horiz-adv-x="866" d="M25 1016q-3 10 -3 20q0 14 7 30q12 26 29.5 33t35.5 7q45 0 64 -51l278 -819l273 819l16 28q18 25 49 25q29 0 51 -25l17 -26q4 -16 4 -21q0 -8 -4 -20l-338 -983q-12 -37 -35 -44t-39 -7q-51 0 -68 51z" />
<glyph unicode="w" horiz-adv-x="1546" d="M23 1042q0 29 20 47.5t47 18.5q20 0 42 -9t32 -40l268 -846l260 821q25 78 78 78q14 0 28.5 -5t28 -18.5t27.5 -54.5l260 -821l268 846q6 29 30 39t42 10q63 0 70 -66q1 -3 1 -7q0 -8 -3 -21l-322 -955l-16 -41q-22 -38 -66 -38h-2q-33 0 -51 19t-31 56l-262 828 l-260 -828q-27 -75 -83 -75h-1q-57 0 -84 79l-319 955q-3 13 -3 21q0 4 1 7z" />
<glyph unicode="x" horiz-adv-x="952" d="M25 47q0 30 16 53l350 484l-311 413q-12 16 -12 50q0 10 13 36.5t52 26.5q20 0 41 -16l27 -31l274 -373l277 373l26 31q20 16 41 16q37 0 51.5 -26.5t14.5 -36.5q4 -27 -13 -50l-311 -413l350 -484q16 -23 17 -57q0 -27 -20.5 -43t-47.5 -16q-14 0 -28.5 6t-36.5 35 l-320 448l-317 -448q-20 -29 -36 -35t-32 -6q-27 0 -46 17t-19 46z" />
<glyph unicode="y" horiz-adv-x="864" d="M20 1036q0 12 12.5 42t59.5 30q18 0 38 -10.5t30 -40.5l274 -832l260 824q18 59 70 59q8 0 40 -10.5t32 -57.5q0 -6 -5 -22l-471 -1399q-23 -68 -71 -68l-23 5q-47 16 -47 65q0 16 4 25l139 377l-337 993q-4 12 -5 20z" />
<glyph unicode="z" horiz-adv-x="903" d="M63 68q0 16 5 26l10 19l571 850h-489q-31 0 -53.5 18t-22.5 45t21.5 46.5t52.5 19.5h604l26 -2q51 -6 52 -64q0 -8 -4 -25l-13 -22l-571 -850h532q31 0 54.5 -19.5t23.5 -46.5q0 -29 -23.5 -46t-54.5 -17h-649l-14 2q-25 2 -41.5 20.5t-16.5 45.5z" />
<glyph unicode="{" horiz-adv-x="641" d="M109 737q55 0 89.5 41t34.5 105v690q0 127 156 127h115q29 0 28 -37q0 -27 -28 -27h-23q-76 0 -98.5 -24.5t-22.5 -102.5v-616q0 -63 -36.5 -106.5t-98.5 -49.5q57 -6 96 -49t39 -106v-617q0 -80 21.5 -103.5t99.5 -23.5h23q29 0 28 -33q0 -31 -28 -30h-115 q-78 0 -117 32.5t-39 94.5v690q0 98 -46.5 119.5t-77.5 25.5z" />
<glyph unicode="|" horiz-adv-x="327" d="M109 0v1475h110v-1475h-110z" />
<glyph unicode="}" horiz-adv-x="641" d="M109 -193q0 31 28 31h23q76 0 98.5 24.5t22.5 102.5v617q0 63 36.5 106t98.5 49q-57 6 -96 49t-39 107v616q0 78 -22.5 102.5t-98.5 24.5h-23q-29 0 -28 33q-1 31 28 31h115q154 0 154 -127v-690q0 -63 34.5 -104.5t91.5 -41.5q-55 0 -90.5 -42t-35.5 -103v-690 q0 -127 -154 -127h-115q-29 0 -28 32z" />
<glyph unicode="~" horiz-adv-x="929" d="M109 604v33q0 102 46 156.5t126 54.5q53 0 120 -29l156 -65l27 -11q41 -12 65 -12q63 0 78 96l2 19h92v-31q0 -102 -46 -156.5t-128 -54.5q-53 0 -121 29l-153 65l-29 11q-16 6 -34.5 7t-28.5 3q-63 0 -80 -94l-2 -21h-90z" />
<glyph unicode="&#xa1;" horiz-adv-x="405" d="M111 1419q0 37 27.5 62.5t64.5 25.5q39 0 65.5 -27.5t26.5 -64.5t-26.5 -63.5t-67.5 -26.5q-39 0 -64.5 27.5t-25.5 66.5zM135 43v952q0 29 20.5 49.5t49.5 20.5q27 0 46 -19.5t19 -48.5v-952q0 -31 -19.5 -51.5t-47.5 -20.5q-27 0 -47.5 20.5t-20.5 49.5z" />
<glyph unicode="&#xa2;" horiz-adv-x="905" d="M80 553q0 195 95 338t251 196l39 13v145q0 33 35 33q14 0 24.5 -10.5t10.5 -26.5v-131q20 2 34.5 3t26.5 -1q37 0 58.5 -3t105.5 -30.5t84 -85.5q0 -20 -19.5 -45.5t-50.5 -25.5q-20 0 -37 8l-28 14l-13 6l-24 11q-55 20 -90 20q-23 0 -47 -6v-852q29 -4 43 -4 q31 0 67 10l39 16l18 9l21 8l31 14q18 8 50 -6t32 -59q0 -31 -26 -56.5t-84 -46t-136 -20.5h-55v-121q0 -16 -10.5 -27.5t-26.5 -11.5q-12 0 -23.5 11t-11.5 28v129l-43 10q-135 41 -218 146.5t-101.5 223.5t-19.5 140.5t-1 36.5zM240 561q0 -49 15 -141t59 -161t124 -107 l25 -11l2 822l-19 -9q-92 -43 -139 -116.5t-56 -154.5t-10 -96.5t-1 -25.5z" />
<glyph unicode="&#xa3;" horiz-adv-x="1206" d="M68 737q0 25 19 45.5t52 20.5h193l-29 51q-45 80 -65.5 152.5t-20.5 142.5q0 139 91 233.5t193.5 111.5t141.5 17q14 0 33.5 -2t141.5 -21.5t204 -157.5t82 -193q0 -31 -20.5 -51.5t-49.5 -20.5q-33 0 -57 31l-23 61l-14 33q-80 156 -181.5 170t-119.5 14 q-123 0 -202 -70.5t-79 -175.5q0 -25 7.5 -67.5t37.5 -108.5l46 -90l8 -14l20 -41h250q31 0 55.5 -19.5t24.5 -46.5t-21.5 -46t-56.5 -19h-213l10 -45q2 -25 5.5 -45.5t3.5 -46.5q0 -94 -37 -183.5t-117 -179.5l-45 -45h731q27 0 50.5 -19.5t23.5 -48.5q0 -23 -20.5 -43 t-49.5 -20h-860l-23 6q-45 18 -45 66q0 16 9.5 29.5t23.5 31.5l8 8l49 47l37 41q70 90 96.5 170t26.5 174q0 37 -6 64q-10 25 -12 37h-238q-29 0 -49 18.5t-20 44.5z" />
<glyph unicode="&#xa4;" horiz-adv-x="935" d="M109 438l133 133q-59 76 -60 166q0 92 58 168l-131 125l14 17l12 16l15 14l16 15l133 -129q74 57 166 57q98 0 172 -55l129 129l18 -15q25 -20 43 -49l-133 -125q53 -74 54 -168q0 -94 -56 -168l133 -133l-14 -14l-12 -12l-19 -17l-16 -14l-129 133q-72 -57 -168 -57 t-168 57l-133 -131q-32 24 -57 57zM274 737q0 -80 56.5 -136t134.5 -56q80 0 136 56t56 136t-56 136.5t-136 56.5t-135.5 -55.5t-55.5 -137.5z" />
<glyph unicode="&#xa5;" horiz-adv-x="1148" d="M84 1409q-8 29 6 51.5t45 28.5t60 -16l20 -23l360 -612l361 612q6 14 20 23q27 23 60 16q29 -4 43 -27.5t6 -52.5l-8 -20l-332 -560l256 2q16 0 30.5 -12t14.5 -31q0 -20 -13.5 -32.5t-29.5 -12.5l-313 -2l-27 -49v-39l340 2q18 0 30.5 -12t12.5 -31q0 -20 -14.5 -31.5 t-28.5 -11.5l-340 -2l2 -512q0 -74 -70 -73q-72 0 -71 73l-4 510l-336 -2q-16 0 -39 15q-12 12 -12 30q0 14 16 28.5t35 14.5l338 2l-2 39l-29 49l-307 -2q-18 0 -34.5 14.5t-16.5 30.5q0 14 15 27.5t36 13.5l258 2l-330 562z" />
<glyph unicode="&#xa7;" horiz-adv-x="1159" d="M70 592q0 154 94 240t131 106q-63 41 -99 107.5t-36 144.5q0 143 78.5 207.5t129 85t113.5 20.5q72 6 129 6q139 0 221 -33.5t123 -95t58.5 -104.5t17.5 -76q0 -47 -33 -70l-16 -10q-16 -6 -33 -6q-53 0 -65 51l-6 33l-7 37l-2 18q0 23 -20.5 51.5t-61.5 44t-102 23.5 t-86 8h-37q-125 0 -190.5 -49t-65.5 -129q0 -29 6 -54.5t30 -53t79 -62.5l22 -12l375 -193l74 -41q96 -59 146 -143t50 -176q0 -176 -97 -246.5t-114.5 -81t-46.5 -20.5q37 -23 90.5 -83.5t53.5 -170.5q0 -152 -93.5 -221.5t-158 -87t-164.5 -17.5q-150 0 -235.5 35 t-123.5 96.5t-51.5 103.5t-13.5 72q0 41 16.5 64.5t41 29t30.5 5.5q59 0 60 -76l2 -19l8 -47q14 -104 97 -117.5t134 -13.5q158 0 231.5 46t73.5 132q0 55 -27.5 94.5t-97.5 73.5l-354 183q-154 80 -216 169t-62 222zM190 573q0 -133 211 -241l275 -144l41 15 q117 49 175 114.5t58 139.5q0 76 -38 123t-71.5 69.5t-90.5 52.5l-338 172q-82 -45 -152 -131t-70 -170z" />
<glyph unicode="&#xa8;" horiz-adv-x="452" d="M-59 1276q0 41 28.5 69.5t69.5 28.5t67.5 -28.5t26.5 -67.5q0 -41 -27.5 -68.5t-64.5 -27.5q-43 0 -71.5 26.5t-28.5 67.5zM319 1276q0 41 27 69.5t68 28.5q39 0 68.5 -27.5t29.5 -68.5t-28.5 -68.5t-69.5 -27.5t-68 26.5t-27 67.5z" />
<glyph unicode="&#xa9;" horiz-adv-x="1757" d="M115 739q0 317 223 540.5t541 223.5q317 0 540 -223t223 -541q0 -317 -223 -540.5t-540 -223.5t-540.5 223.5t-223.5 540.5zM205 739q0 -137 51 -262t147.5 -223t219 -148.5t256.5 -50.5q131 0 254.5 50.5t221 148.5t147.5 223t50 260q0 133 -49 259t-147.5 225.5 t-221 149.5t-255.5 50q-131 0 -255 -50t-220.5 -148.5t-147.5 -222.5t-51 -261zM494 725l6 90q27 186 134 288.5t269 102.5q133 0 206 -53t56 -100q-12 -39 -47 -39q-16 0 -43 16l-14 10l-25 19q-10 6 -28.5 14t-45 16.5t-67.5 8.5q-31 0 -55.5 -6.5t-74.5 -31t-92 -92 t-49.5 -129t-8.5 -79t-1 -27.5q0 -39 13.5 -127t89.5 -161.5t188 -73.5q16 0 58.5 6t95.5 35l8 6l29 18l24 13q25 8 45.5 -8.5t20.5 -45.5q0 -35 -74 -83t-209 -48q-176 0 -292.5 126t-116.5 335z" />
<glyph unicode="&#xaa;" horiz-adv-x="901" d="M109 618q0 16 15.5 30t33.5 14h592q20 0 31.5 -13.5t11.5 -32.5q0 -16 -13.5 -28.5t-29.5 -12.5h-594q-16 0 -31.5 12.5t-15.5 30.5zM119 1108q0 141 51 226t120.5 125t147.5 40q127 0 205 -98v43q0 23 18.5 39t45.5 16q25 0 41 -18.5t16 -42.5v-639q0 -23 -16.5 -41.5 t-42.5 -18.5q-27 0 -45.5 16.5t-18.5 43.5v53q-66 -111 -209 -111q-61 0 -118.5 26t-126 104.5t-68.5 236.5zM244 1122q0 -131 56 -203.5t144 -72.5q33 0 81 15.5t84 81t36 187.5q0 76 -10 115t-51 94.5t-133 55.5q-90 0 -133.5 -53.5t-58.5 -105t-15 -114.5z" />
<glyph unicode="&#xab;" horiz-adv-x="780" d="M82 549q0 12 18 43l183 319q14 27 49 41q29 10 51.5 -6t22.5 -47q0 -29 -13 -51l-186 -305l184 -307q16 -29 17 -50q0 -37 -28 -47t-36 -10q-35 0 -63 49l-170 305q-29 49 -29 66zM371 549q0 12 18 43l182 319q14 27 40 36t30 9q23 0 39 -16t16 -41q0 -31 -14 -51 l-184 -305l182 -307q16 -29 16 -50q0 -37 -26.5 -47t-34.5 -10q-37 0 -66 49l-168 305q-31 55 -30 66z" />
<glyph unicode="&#xac;" horiz-adv-x="1150" d="M109 737v111h933v-406h-98v295h-835z" />
<glyph unicode="&#xad;" horiz-adv-x="710" d="M82 537q0 65 57 65h422q29 0 48.5 -19.5t19.5 -45.5q0 -27 -20.5 -46.5t-47.5 -19.5h-420q-23 0 -41 18.5t-18 47.5z" />
<glyph unicode="&#xae;" horiz-adv-x="1757" d="M115 739q0 317 223 540.5t541 223.5q317 0 540 -223t223 -541q0 -317 -223 -540.5t-540 -223.5t-540.5 223.5t-223.5 540.5zM205 739q0 -137 51 -262t147.5 -223t219 -148.5t256.5 -50.5q131 0 254.5 50.5t221 148.5t147.5 223t50 260q0 133 -49 259t-147.5 225.5 t-221 149.5t-255.5 50q-131 0 -255 -50t-220.5 -148.5t-147.5 -222.5t-51 -261zM618 336v809q0 39 37 53l23 6h217q104 0 179 -54t87.5 -107.5t14.5 -74t2 -36.5q0 -106 -72 -174t-193 -68l-45 2l306 -323q14 -14 14 -37q0 -10 -9.5 -33t-48.5 -23q-10 0 -26 9l-17 12 l-352 393v-356q0 -25 -16.5 -41.5t-40.5 -16.5q-25 0 -42.5 17.5t-17.5 42.5zM735 782h172q66 0 110 46t44 114q0 66 -49 111t-121 45h-156v-316z" />
<glyph unicode="&#xb0;" horiz-adv-x="757" d="M109 1233q0 113 80.5 191.5t189.5 78.5q113 0 191.5 -78.5t78.5 -191.5t-78.5 -191.5t-191.5 -78.5t-191.5 78.5t-78.5 191.5zM195 1233q0 -76 53 -129t131 -53t131 53t53 129q0 78 -53 131t-131 53t-131 -53t-53 -131z" />
<glyph unicode="&#xb4;" horiz-adv-x="444" d="M4 1245q0 14 10 36t39 32l295 114q20 4 29 5h18q8 -4 31 -12.5t23 -55.5q0 -14 -10.5 -35.5t-39.5 -32.5l-295 -114q-16 -6 -30 -6q-12 0 -41 13t-29 56z" />
<glyph unicode="&#xb6;" horiz-adv-x="1247" d="M109 1079q0 164 113.5 280t279.5 116h585q20 0 37 -16.5t17 -35.5q0 -23 -17.5 -36t-36.5 -13l-587 -2q-121 0 -204 -87t-83 -212q0 -119 84 -203t203 -84h143l2 451q0 23 15.5 38t37.5 15q23 0 37.5 -14t14.5 -37v-1196q0 -23 -14.5 -37t-37.5 -14t-39 14t-16 39v639 h-141q-164 0 -278.5 114.5t-114.5 280.5zM887 43l2 1196q0 20 16.5 36.5t38.5 16.5q23 0 37 -14t14 -39v-1196q0 -23 -16 -37t-39 -14q-20 0 -36.5 14t-16.5 37z" />
<glyph unicode="&#xb8;" horiz-adv-x="311" d="M39 -236q0 50 27 97l118 202h127l-153 -319q-12 -29 -45 -39q-29 -8 -51.5 10.5t-22.5 48.5z" />
<glyph unicode="&#xba;" horiz-adv-x="882" d="M109 621q0 16 13.5 29.5t33.5 13.5l575 -2q18 0 31.5 -13.5t13.5 -30.5q0 -14 -15.5 -27t-31.5 -13h-575q-18 0 -31.5 12t-13.5 31zM117 1122q0 143 71.5 242.5t136 115t85 17.5t36.5 2q119 0 209 -86t102.5 -166t12.5 -95v-32v-24q0 -14 -11 -98.5t-102.5 -171.5 t-210.5 -87h-34q-25 6 -87.5 19.5t-135 115t-72.5 248.5zM246 1120l2 -43q12 -111 64.5 -171t129.5 -60q23 0 66 10t83 66.5t50 154.5v86q-10 94 -50 150.5t-83 68t-66 11.5q-76 0 -129 -59.5t-65 -170.5z" />
<glyph unicode="&#xbb;" horiz-adv-x="780" d="M82 895q0 39 43 55q49 18 84 -45l170 -305q29 -51 29 -65q0 -12 -19 -43l-180 -322q-20 -31 -51 -39q-29 -10 -51.5 6.5t-22.5 46.5q0 27 12 49l187 308l-185 307q-16 27 -16 47zM373 184q0 25 14 49l184 308l-184 307q-14 23 -14 47q0 39 41 55q49 16 86 -45l168 -305 q31 -55 30 -65q0 -12 -18 -43l-182 -322q-16 -29 -41 -36t-29 -7q-23 0 -39 16.5t-16 40.5z" />
<glyph unicode="&#xbf;" horiz-adv-x="931" d="M51 268v19q4 8 12.5 36.5t59.5 28.5q14 0 36.5 -9t33.5 -58l6 -19l6 -20l6 -19q23 -51 64.5 -78.5t96 -35t72.5 -7.5q115 0 182.5 66t67.5 170q0 31 -19.5 122t-172.5 130l-39 6l-23 4l-16 2l-23 10q-35 18 -41 54v32v295q0 29 20.5 47.5t51.5 18.5q66 0 66 -66v-262 l43 -8q117 -27 197.5 -105.5t97 -158.5t16.5 -121q0 -160 -113.5 -265.5t-302.5 -105.5q-205 0 -295 108.5t-90 188.5zM342 1421q0 37 26.5 61.5t63.5 24.5q39 0 65.5 -26.5t26.5 -63.5t-26.5 -62.5t-67.5 -25.5q-39 0 -63.5 26.5t-24.5 65.5z" />
<glyph unicode="&#xc0;" d="M27 47q0 21 8 39l485 1311q33 92 98 92q25 0 47.5 -7t36 -24.5t29.5 -60.5l488 -1311q8 -23 8 -43v-12q-4 -8 -12.5 -29.5t-53.5 -21.5q-23 0 -39 14q-16 10 -26 35l-117 297h-707l-114 -297q-8 -20 -25.5 -34.5t-42.5 -14.5q-43 0 -59 40q-4 16 -4 27zM313 449h627 l-313 858zM403 1747q0 45 29 56.5t45 11.5q11 -1 27 -5l295 -114q31 -14 40 -34t9 -36q0 -49 -43 -61q-12 -6 -29 -6q-12 0 -28 6l-295 112q-27 12 -38.5 33t-11.5 37z" />
<glyph unicode="&#xc1;" d="M27 47q0 21 8 39l485 1311q33 92 98 92q25 0 47.5 -7t36 -24.5t29.5 -60.5l488 -1311q8 -23 8 -43v-12q-4 -8 -12.5 -29.5t-53.5 -21.5q-23 0 -39 14q-16 10 -26 35l-117 297h-707l-114 -297q-8 -20 -25.5 -34.5t-42.5 -14.5q-43 0 -59 40q-4 16 -4 27zM313 449h627 l-313 858zM410 1628q0 14 10 36t39 32l295 114q20 4 28 5h19q8 -4 30.5 -12.5t22.5 -55.5q0 -14 -10 -35.5t-39 -32.5l-295 -114q-16 -6 -31 -6q-12 0 -40.5 13t-28.5 56z" />
<glyph unicode="&#xc2;" d="M27 47q0 21 8 39l485 1311q33 92 98 92q25 0 47.5 -7t36 -24.5t29.5 -60.5l488 -1311q8 -23 8 -43v-12q-4 -8 -12.5 -29.5t-53.5 -21.5q-23 0 -39 14q-16 10 -26 35l-117 297h-707l-114 -297q-8 -20 -25.5 -34.5t-42.5 -14.5q-43 0 -59 40q-4 16 -4 27zM313 449h627 l-313 858zM313 1630q0 12 10 34t37 34l226 88q14 6 25.5 8t17.5 4l41 -14l225 -84q45 -16 45 -66q0 -18 -15.5 -46.5t-62.5 -28.5q-12 0 -28 6l-207 86l-213 -86q-8 -4 -29 -4q-18 0 -45 10t-27 59z" />
<glyph unicode="&#xc3;" d="M27 47q0 21 8 39l485 1311q33 92 98 92q25 0 47.5 -7t36 -24.5t29.5 -60.5l488 -1311q8 -23 8 -43v-12q-4 -8 -12.5 -29.5t-53.5 -21.5q-23 0 -39 14q-16 10 -26 35l-117 297h-707l-114 -297q-8 -20 -25.5 -34.5t-42.5 -14.5q-43 0 -59 40q-4 16 -4 27zM313 449h627 l-313 858zM336 1653q0 29 21.5 50t52.5 21l432 -2q31 0 52 -21.5t21 -49.5q0 -29 -24.5 -50.5t-50.5 -21.5l-428 2q-29 0 -52.5 21.5t-23.5 50.5z" />
<glyph unicode="&#xc4;" d="M27 47q0 21 8 39l485 1311q33 92 98 92q25 0 47.5 -7t36 -24.5t29.5 -60.5l488 -1311q8 -23 8 -43v-12q-4 -8 -12.5 -29.5t-53.5 -21.5q-23 0 -39 14q-16 10 -26 35l-117 297h-707l-114 -297q-8 -20 -25.5 -34.5t-42.5 -14.5q-43 0 -59 40q-4 16 -4 27zM309 1503 q0 39 29 67.5t70 28.5q39 0 66.5 -27.5t27.5 -68.5q0 -39 -28 -66.5t-64 -27.5q-43 0 -72 26.5t-29 67.5zM313 449h627l-313 858zM752 1501q0 41 26.5 69.5t67.5 28.5q39 0 69 -26q27 -29 27 -70t-27.5 -67.5t-70.5 -26.5q-39 0 -65.5 26.5t-26.5 65.5z" />
<glyph unicode="&#xc5;" d="M27 47q0 21 8 39l485 1311q18 45 27.5 58t30.5 24q-53 18 -85 61t-32 98q0 72 49 123t117 51q70 0 117 -51t47 -121q0 -55 -33 -99t-84 -60q23 -10 32 -23.5t25 -60.5l488 -1311q8 -23 8 -43v-12q-4 -8 -12.5 -29.5t-53.5 -21.5q-23 0 -39 14q-16 10 -26 35l-117 297 h-707l-114 -297q-8 -20 -25.5 -34.5t-42.5 -14.5q-43 0 -59 40q-4 16 -4 27zM313 449h627l-313 858zM547 1645q0 -33 22.5 -57.5t57.5 -24.5t58.5 23.5t23.5 55.5q0 31 -23 58q-27 23 -57 22q-33 0 -57.5 -22t-24.5 -55z" />
<glyph unicode="&#xc6;" horiz-adv-x="1527" d="M10 47q0 21 8 35l668 1323q20 41 38.5 55.5t49.5 14.5h590q25 0 45.5 -18.5t20.5 -45.5q0 -29 -18.5 -47t-45.5 -18h-444v-547h424q57 0 57 -66q0 -27 -18.5 -45t-45.5 -18h-421v-541h464q14 0 22.5 -3t25 -18.5t16.5 -44.5q0 -25 -18.5 -44t-47.5 -19h-528q-74 0 -74 78 v252h-485l-156 -303q-12 -25 -30.5 -35t-34.5 -10q-39 0 -50.5 25.5t-11.5 39.5zM352 451h428v847z" />
<glyph unicode="&#xc7;" horiz-adv-x="1206" d="M82 719v57.5t23.5 209.5t193.5 345t418 166q98 0 181 -26.5t141.5 -67.5t80 -70.5t21.5 -54.5q0 -6 -11.5 -39t-56.5 -33q-23 0 -49 21l-18 16q-55 51 -106.5 78t-107 36t-92.5 9q-178 0 -306 -140.5t-145.5 -293t-17.5 -205.5v-51.5t22.5 -164.5t150.5 -272t321 -128 q39 0 108.5 9t157.5 62l4 4l56 39q41 29 61 29q6 0 36 -10.5t30 -63.5q0 -23 -12.5 -40t-34 -34.5t-64.5 -45t-138 -54t-204 -26.5q-279 0 -461 199.5t-182 539.5zM557 -211q5 31 23 47l116 125h127l-153 -194q-20 -27 -52 -33q-25 -4 -43 12t-18 43z" />
<glyph unicode="&#xc8;" horiz-adv-x="897" d="M141 80v1321q0 31 21.5 52.5t52.5 21.5h512q29 0 47.5 -18.5t18.5 -45.5q0 -29 -20.5 -47t-47.5 -18h-438v-545h418q27 0 48 -18.5t21 -47.5q0 -27 -19.5 -46t-45.5 -19h-424v-541h465q27 0 46 -18.5t19 -47.5q0 -25 -18.5 -44t-46.5 -19h-537q-72 0 -72 80zM225 1747 q0 45 29 56.5t45 11.5q11 -1 27 -5l295 -114q31 -14 40 -34t9 -36q0 -49 -43 -61q-12 -6 -29 -6q-12 0 -29 6l-295 112q-27 12 -38 33t-11 37z" />
<glyph unicode="&#xc9;" horiz-adv-x="897" d="M141 80v1321q0 31 21.5 52.5t52.5 21.5h512q29 0 47.5 -18.5t18.5 -45.5q0 -29 -20.5 -47t-47.5 -18h-438v-545h418q27 0 48 -18.5t21 -47.5q0 -27 -19.5 -46t-45.5 -19h-424v-541h465q27 0 46 -18.5t19 -47.5q0 -25 -18.5 -44t-46.5 -19h-537q-72 0 -72 80zM231 1628 q0 14 10.5 36t39.5 32l294 114q20 4 29 5h19q8 -4 30.5 -12.5t22.5 -55.5q0 -14 -10.5 -35.5t-38.5 -32.5l-295 -114q-16 -6 -31 -6q-12 0 -41 13t-29 56z" />
<glyph unicode="&#xca;" horiz-adv-x="897" d="M135 1630q0 12 10 34t37 34l226 88q14 6 25 8t18 4l41 -14l225 -84q45 -16 45 -66q0 -18 -15.5 -46.5t-62.5 -28.5q-12 0 -29 6l-206 86l-213 -86q-8 -4 -29 -4q-18 0 -45 10t-27 59zM141 80v1321q0 31 21.5 52.5t52.5 21.5h512q29 0 47.5 -18.5t18.5 -45.5 q0 -29 -20.5 -47t-47.5 -18h-438v-545h418q27 0 48 -18.5t21 -47.5q0 -27 -19.5 -46t-45.5 -19h-424v-541h465q27 0 46 -18.5t19 -47.5q0 -25 -18.5 -44t-46.5 -19h-537q-72 0 -72 80z" />
<glyph unicode="&#xcb;" horiz-adv-x="897" d="M141 80v1321q0 31 21.5 52.5t52.5 21.5h512q29 0 47.5 -18.5t18.5 -45.5q0 -29 -20.5 -47t-47.5 -18h-438v-545h418q27 0 48 -18.5t21 -47.5q0 -27 -19.5 -46t-45.5 -19h-424v-541h465q27 0 46 -18.5t19 -47.5q0 -25 -18.5 -44t-46.5 -19h-537q-72 0 -72 80zM164 1659 q0 41 28.5 69.5t69.5 28.5t67.5 -28.5t26.5 -67.5q0 -41 -27.5 -68.5t-64.5 -27.5q-43 0 -71.5 26.5t-28.5 67.5zM543 1659q0 41 26.5 69.5t67.5 28.5q39 0 68.5 -27.5t29.5 -68.5t-28.5 -68.5t-69.5 -27.5t-67.5 26.5t-26.5 67.5z" />
<glyph unicode="&#xcc;" horiz-adv-x="421" d="M-12 1747q0 45 28.5 56.5t44.5 11.5q11 -1 27 -5l295 -114q31 -14 40 -34t9 -36q0 -49 -43 -61q-12 -6 -29 -6q-12 0 -28 6l-295 112q-27 12 -38 33t-11 37zM141 49v1368q0 31 20.5 51.5t49.5 20.5q31 0 50.5 -22.5t19.5 -49.5v-1368q0 -29 -18.5 -49t-49.5 -20 q-29 0 -50.5 19t-21.5 50z" />
<glyph unicode="&#xcd;" horiz-adv-x="421" d="M-6 1628q0 14 10 36t39 32l295 114q20 4 29 5h18q8 -4 30.5 -12.5t22.5 -55.5q0 -14 -10 -35.5t-39 -32.5l-295 -114q-16 -6 -31 -6q-12 0 -40.5 13t-28.5 56zM141 49v1368q0 31 20.5 51.5t49.5 20.5q31 0 50.5 -22.5t19.5 -49.5v-1368q0 -29 -18.5 -49t-49.5 -20 q-29 0 -50.5 19t-21.5 50z" />
<glyph unicode="&#xce;" horiz-adv-x="421" d="M-102 1630q0 12 9 34t38 34l225 88q14 6 25.5 8t17.5 4l41 -14l225 -84q45 -16 45 -66q0 -18 -15 -46.5t-63 -28.5q-12 0 -28 6l-207 86l-213 -86q-8 -4 -29 -4q-18 0 -44.5 10t-26.5 59zM141 49v1368q0 31 20.5 51.5t49.5 20.5q31 0 50.5 -22.5t19.5 -49.5v-1368 q0 -29 -18.5 -49t-49.5 -20q-29 0 -50.5 19t-21.5 50z" />
<glyph unicode="&#xcf;" horiz-adv-x="421" d="M-74 1659q0 41 29 69.5t70 28.5t67.5 -28.5t26.5 -67.5q0 -41 -28 -68.5t-64 -27.5q-43 0 -72 26.5t-29 67.5zM141 49v1368q0 31 20.5 51.5t49.5 20.5q31 0 50.5 -22.5t19.5 -49.5v-1368q0 -29 -18.5 -49t-49.5 -20q-29 0 -50.5 19t-21.5 50zM305 1659q0 41 26.5 69.5 t67.5 28.5q39 0 69 -27.5t30 -68.5t-29 -68.5t-70 -27.5t-67.5 26.5t-26.5 67.5z" />
<glyph unicode="&#xd1;" horiz-adv-x="1376" d="M141 55v1368q0 29 22.5 50.5t51.5 21.5q39 0 57 -31l824 -1222v1177q0 29 20.5 51.5t48.5 22.5q29 0 49.5 -21.5t20.5 -52.5v-1370l-6 -29l-12 -18q-23 -25 -54 -25q-37 0 -57 33l-825 1225v-1180q0 -29 -18.5 -49t-49.5 -20t-51.5 18t-20.5 51zM397 1653q0 29 21.5 50 t52.5 21l432 -2q31 0 52.5 -21.5t21.5 -49.5q0 -29 -24.5 -50.5t-51.5 -21.5l-428 2q-29 0 -52.5 21.5t-23.5 50.5z" />
<glyph unicode="&#xd2;" horiz-adv-x="1413" d="M82 737q0 342 179 549t441 207q63 0 208 -31.5t283 -230.5t138 -494q0 -342 -179 -547.5t-445 -205.5q-264 0 -444.5 205.5t-180.5 547.5zM240 737q0 -297 129 -464t329 -167q55 0 167 26t210.5 183.5t98.5 421.5q0 262 -99.5 421t-210 184.5t-166.5 25.5 q-201 0 -329.5 -167t-128.5 -464zM483 1747q0 45 29 56.5t45 11.5q11 -1 27 -5l295 -114q31 -14 40 -34t9 -36q0 -49 -43 -61q-12 -6 -29 -6q-12 0 -29 6l-295 112q-27 12 -38 33t-11 37z" />
<glyph unicode="&#xd3;" horiz-adv-x="1413" d="M82 737q0 342 179 549t441 207q63 0 208 -31.5t283 -230.5t138 -494q0 -342 -179 -547.5t-445 -205.5q-264 0 -444.5 205.5t-180.5 547.5zM240 737q0 -297 129 -464t329 -167q55 0 167 26t210.5 183.5t98.5 421.5q0 262 -99.5 421t-210 184.5t-166.5 25.5 q-201 0 -329.5 -167t-128.5 -464zM489 1628q0 14 10.5 36t39.5 32l295 114q20 4 28 5h19q8 -4 30.5 -12.5t22.5 -55.5q0 -14 -10.5 -35.5t-38.5 -32.5l-295 -114q-16 -6 -31 -6q-12 0 -41 13t-29 56z" />
<glyph unicode="&#xd4;" horiz-adv-x="1413" d="M82 737q0 342 179 549t441 207q63 0 208 -31.5t283 -230.5t138 -494q0 -342 -179 -547.5t-445 -205.5q-264 0 -444.5 205.5t-180.5 547.5zM240 737q0 -297 129 -464t329 -167q55 0 167 26t210.5 183.5t98.5 421.5q0 262 -99.5 421t-210 184.5t-166.5 25.5 q-201 0 -329.5 -167t-128.5 -464zM393 1630q0 12 10 34t37 34l226 88q14 6 25 8t18 4l41 -14l225 -84q45 -16 45 -66q0 -18 -15.5 -46.5t-62.5 -28.5q-12 0 -29 6l-206 86l-213 -86q-8 -4 -29 -4q-18 0 -45 10t-27 59z" />
<glyph unicode="&#xd5;" horiz-adv-x="1413" d="M82 737q0 342 179 549t441 207q63 0 208 -31.5t283 -230.5t138 -494q0 -342 -179 -547.5t-445 -205.5q-264 0 -444.5 205.5t-180.5 547.5zM240 737q0 -297 129 -464t329 -167q55 0 167 26t210.5 183.5t98.5 421.5q0 262 -99.5 421t-210 184.5t-166.5 25.5 q-201 0 -329.5 -167t-128.5 -464zM416 1653q0 29 21 50t52 21l433 -2q31 0 52 -21.5t21 -49.5q0 -29 -24.5 -50.5t-50.5 -21.5l-428 2q-29 0 -52.5 21.5t-23.5 50.5z" />
<glyph unicode="&#xd6;" horiz-adv-x="1413" d="M82 737q0 342 179 549t441 207q63 0 208 -31.5t283 -230.5t138 -494q0 -342 -179 -547.5t-445 -205.5q-264 0 -444.5 205.5t-180.5 547.5zM147 1513q0 43 27 70t68 27q39 0 65.5 -27t26.5 -65q0 -41 -27.5 -69t-66.5 -28q-37 0 -65 27.5t-28 64.5zM240 737 q0 -297 129 -464t329 -167q55 0 167 26t210.5 183.5t98.5 421.5q0 262 -99.5 421t-210 184.5t-166.5 25.5q-201 0 -329.5 -167t-128.5 -464zM1079 1513q0 51 32 77t65 26q47 0 68.5 -32t21.5 -64q0 -43 -27 -71t-65 -28q-37 0 -66 26.5t-29 65.5z" />
<glyph unicode="&#xd8;" horiz-adv-x="1413" d="M74 18q0 23 18 50l137 165q-76 109 -111.5 232t-35.5 272q0 340 180 548t443 208q70 0 184 -26.5t231 -145.5l135 168q16 20 43 20q23 0 40.5 -18t17.5 -45q0 -20 -17 -43l-141 -172q96 -164 114.5 -293t18.5 -207q0 -287 -138 -485.5t-263 -227t-157 -32.5t-73 -4 q-233 0 -391 163l-129 -157q-20 -23 -51 -27q-25 0 -41 17.5t-14 39.5zM238 737q0 -223 88 -387l706 864q-90 106 -186 128t-148 22q-201 0 -330.5 -166t-129.5 -461zM393 248q90 -96 180.5 -114.5t143.5 -18.5q201 0 330 158.5t129 441.5q0 63 -12.5 170.5t-61.5 228.5z " />
<glyph unicode="&#xd9;" horiz-adv-x="1382" d="M141 504v913q0 27 21 51q25 20 49 21q31 0 50.5 -21.5t19.5 -50.5v-917q0 -158 87 -262.5t186 -121t138 -16.5q37 0 137.5 16.5t186.5 120t86 263.5v917q0 29 21.5 50.5t50.5 21.5q27 0 47 -22.5t20 -49.5v-913q0 -207 -118.5 -344t-248 -158.5t-182.5 -21.5t-184 21.5 t-249 157.5t-118 345zM467 1747q0 45 28.5 56.5t45.5 11.5q10 -1 26 -5l295 -114q31 -14 40 -34t9 -36q0 -49 -43 -61q-12 -6 -28 -6q-12 0 -29 6l-295 112q-27 12 -38 33t-11 37z" />
<glyph unicode="&#xda;" horiz-adv-x="1382" d="M141 504v913q0 27 21 51q25 20 49 21q31 0 50.5 -21.5t19.5 -50.5v-917q0 -158 87 -262.5t186 -121t138 -16.5q37 0 137.5 16.5t186.5 120t86 263.5v917q0 29 21.5 50.5t50.5 21.5q27 0 47 -22.5t20 -49.5v-913q0 -207 -118.5 -344t-248 -158.5t-182.5 -21.5t-184 21.5 t-249 157.5t-118 345zM473 1628q0 14 10 36t39 32l295 114q20 4 29 5h18q8 -4 31 -12.5t23 -55.5q0 -14 -10.5 -35.5t-39.5 -32.5l-295 -114q-16 -6 -30 -6q-12 0 -41 13t-29 56z" />
<glyph unicode="&#xdb;" horiz-adv-x="1382" d="M141 504v913q0 27 21 51q25 20 49 21q31 0 50.5 -21.5t19.5 -50.5v-917q0 -158 87 -262.5t186 -121t138 -16.5q37 0 137.5 16.5t186.5 120t86 263.5v917q0 29 21.5 50.5t50.5 21.5q27 0 47 -22.5t20 -49.5v-913q0 -207 -118.5 -344t-248 -158.5t-182.5 -21.5t-184 21.5 t-249 157.5t-118 345zM377 1630q0 12 10 34t37 34l225 88q14 6 25.5 8t17.5 4l41 -14l225 -84q45 -16 46 -66q0 -18 -15.5 -46.5t-62.5 -28.5q-12 0 -29 6l-207 86l-213 -86q-8 -4 -28 -4q-18 0 -45 10t-27 59z" />
<glyph unicode="&#xdc;" horiz-adv-x="1382" d="M141 504v913q0 27 21 51q25 20 49 21q31 0 50.5 -21.5t19.5 -50.5v-917q0 -158 87 -262.5t186 -121t138 -16.5q37 0 137.5 16.5t186.5 120t86 263.5v917q0 29 21.5 50.5t50.5 21.5q27 0 47 -22.5t20 -49.5v-913q0 -207 -118.5 -344t-248 -158.5t-182.5 -21.5t-184 21.5 t-249 157.5t-118 345zM434 1507q0 41 26.5 68t67.5 27q39 0 67 -27t28 -70q0 -41 -28 -68.5t-67 -27.5t-66.5 27.5t-27.5 70.5zM760 1505q0 41 27.5 69t68.5 28t67.5 -29t26.5 -68t-28.5 -67.5t-67.5 -28.5t-66.5 29.5t-27.5 66.5z" />
<glyph unicode="&#xdf;" horiz-adv-x="1132" d="M141 57v1096q0 186 80 294.5t164 124t119 17.5t37 2q143 0 241.5 -86t114.5 -184t16 -139q0 -104 -42 -185.5t-117 -126.5q121 -37 199.5 -150.5t78.5 -270.5v-37q-2 -14 -2 -23q-16 -160 -94 -263t-159 -123.5t-120 -20.5q-47 0 -77.5 17t-36.5 44q-6 31 6 53.5t41 28.5 l26 4l46 -2q31 0 70.5 8t86.5 74.5t54.5 133.5t7.5 83v25q0 37 -19.5 164.5t-199.5 162.5l-35 6q-94 0 -95 58q0 12 8.5 32.5t32.5 30.5l45 13q20 6 78 42.5t66 113.5t8 102q0 33 -12.5 100t-73.5 126.5t-149 59.5q-35 0 -135.5 -25.5t-118.5 -219.5l-2 -43v-1119 q0 -31 -19.5 -52t-48.5 -21q-27 0 -48.5 21t-21.5 54z" />
<glyph unicode="&#xe0;" horiz-adv-x="1146" d="M82 553q0 217 108.5 366.5t201.5 166t111.5 19.5t43.5 3q94 0 178 -41t139 -113v80q0 33 22.5 53.5t53.5 20.5q29 0 47.5 -20.5t18.5 -49.5v-989q0 -31 -19.5 -50t-48.5 -19q-31 0 -53.5 22.5t-22.5 56.5v101q-98 -178 -315 -178q-31 0 -50.5 4t-94 17t-176 124 t-123 233.5t-21.5 192.5zM231 551q0 -223 94.5 -337t245.5 -114q147 0 224 115t77 350q0 123 -16 188.5t-59 123t-103.5 87t-130.5 29.5q-145 0 -214.5 -88t-93.5 -166.5t-24 -187.5zM350 1364q0 45 29 56.5t45 11.5q11 -1 27 -5l294 -114q31 -14 40.5 -33.5t9.5 -36.5 q0 -49 -43 -61q-12 -6 -29 -6q-12 0 -29 6l-295 112q-27 12 -38 33t-11 37z" />
<glyph unicode="&#xe1;" horiz-adv-x="1146" d="M82 553q0 217 108.5 366.5t201.5 166t111.5 19.5t43.5 3q94 0 178 -41t139 -113v80q0 33 22.5 53.5t53.5 20.5q29 0 47.5 -20.5t18.5 -49.5v-989q0 -31 -19.5 -50t-48.5 -19q-31 0 -53.5 22.5t-22.5 56.5v101q-98 -178 -315 -178q-31 0 -50.5 4t-94 17t-176 124 t-123 233.5t-21.5 192.5zM231 551q0 -223 94.5 -337t245.5 -114q147 0 224 115t77 350q0 123 -16 188.5t-59 123t-103.5 87t-130.5 29.5q-145 0 -214.5 -88t-93.5 -166.5t-24 -187.5zM356 1245q0 14 10.5 36t39.5 32l294 114q20 4 29 5h19q8 -4 30.5 -12.5t22.5 -55.5 q0 -14 -10.5 -35.5t-38.5 -32.5l-295 -114q-16 -6 -31 -6q-12 0 -41 13t-29 56z" />
<glyph unicode="&#xe2;" horiz-adv-x="1146" d="M82 553q0 217 108.5 366.5t201.5 166t111.5 19.5t43.5 3q94 0 178 -41t139 -113v80q0 33 22.5 53.5t53.5 20.5q29 0 47.5 -20.5t18.5 -49.5v-989q0 -31 -19.5 -50t-48.5 -19q-31 0 -53.5 22.5t-22.5 56.5v101q-98 -178 -315 -178q-31 0 -50.5 4t-94 17t-176 124 t-123 233.5t-21.5 192.5zM231 551q0 -223 94.5 -337t245.5 -114q147 0 224 115t77 350q0 123 -16 188.5t-59 123t-103.5 87t-130.5 29.5q-145 0 -214.5 -88t-93.5 -166.5t-24 -187.5zM260 1247q0 12 10 34t37 34l225 88q14 6 25.5 8t17.5 4l41 -14l226 -84q45 -16 45 -66 q0 -18 -15.5 -46.5t-62.5 -28.5q-12 0 -29 6l-207 86l-213 -86q-8 -4 -28 -4q-18 0 -45 10t-27 59z" />
<glyph unicode="&#xe3;" horiz-adv-x="1146" d="M82 553q0 217 108.5 366.5t201.5 166t111.5 19.5t43.5 3q94 0 178 -41t139 -113v80q0 33 22.5 53.5t53.5 20.5q29 0 47.5 -20.5t18.5 -49.5v-989q0 -31 -19.5 -50t-48.5 -19q-31 0 -53.5 22.5t-22.5 56.5v101q-98 -178 -315 -178q-31 0 -50.5 4t-94 17t-176 124 t-123 233.5t-21.5 192.5zM231 551q0 -223 94.5 -337t245.5 -114q147 0 224 115t77 350q0 123 -16 188.5t-59 123t-103.5 87t-130.5 29.5q-145 0 -214.5 -88t-93.5 -166.5t-24 -187.5zM283 1270q0 29 21 50t52 21l432 -2q31 0 52.5 -21.5t21.5 -49.5q0 -29 -24.5 -50.5 t-51.5 -21.5l-428 2q-29 0 -52 21.5t-23 50.5z" />
<glyph unicode="&#xe4;" horiz-adv-x="1146" d="M82 553q0 217 108.5 366.5t201.5 166t111.5 19.5t43.5 3q94 0 178 -41t139 -113v80q0 33 22.5 53.5t53.5 20.5q29 0 47.5 -20.5t18.5 -49.5v-989q0 -31 -19.5 -50t-48.5 -19q-31 0 -53.5 22.5t-22.5 56.5v101q-98 -178 -315 -178q-31 0 -50.5 4t-94 17t-176 124 t-123 233.5t-21.5 192.5zM231 551q0 -223 94.5 -337t245.5 -114q147 0 224 115t77 350q0 123 -16 188.5t-59 123t-103.5 87t-130.5 29.5q-145 0 -214.5 -88t-93.5 -166.5t-24 -187.5zM299 1329q0 41 28.5 71t69.5 30q39 0 68 -28t29 -71q0 -41 -28 -69.5t-71 -28.5 q-39 0 -67.5 28.5t-28.5 67.5zM674 1331q0 18 8 36.5t28.5 40.5t59.5 22q41 0 69.5 -29t28.5 -70t-28.5 -69.5t-67.5 -28.5q-41 0 -69.5 29.5t-28.5 68.5z" />
<glyph unicode="&#xe5;" horiz-adv-x="1146" d="M82 553q0 217 108.5 366.5t201.5 166t111.5 19.5t43.5 3q94 0 178 -41t139 -113v80q0 33 22.5 53.5t53.5 20.5q29 0 47.5 -20.5t18.5 -49.5v-989q0 -31 -19.5 -50t-48.5 -19q-31 0 -53.5 22.5t-22.5 56.5v101q-98 -178 -315 -178q-31 0 -50.5 4t-94 17t-176 124 t-123 233.5t-21.5 192.5zM231 551q0 -219 96.5 -335t243.5 -116q301 0 301 465q0 121 -16 183.5t-85 152.5t-212 90t-211.5 -87t-92.5 -165.5t-24 -187.5zM406 1348q0 66 44 109.5t105 43.5q59 0 103 -46t44 -105q0 -63 -44 -107.5t-103 -44.5q-63 0 -106 43.5t-43 106.5z M479 1350q0 -31 20.5 -53.5t51.5 -22.5t53.5 20.5t22.5 53.5q0 29 -19.5 49t-54.5 24q-29 0 -51.5 -20t-22.5 -51z" />
<glyph unicode="&#xe6;" horiz-adv-x="1839" d="M82 535v39.5t13.5 128t106.5 229.5t177 142.5t111.5 25.5t52.5 4q96 0 182 -42t137 -116v88q0 41 24.5 57.5t47.5 16.5q49 0 65 -47l2 -27v-100l50 53q127 119 280 119q115 0 215.5 -66.5t142.5 -150.5t56 -137.5t22 -116.5l2 -21l3 -53q0 -63 -41 -74l-52 -2h-682l4 -51 q16 -145 112.5 -233t236.5 -88h22q12 0 68.5 8t146.5 65l27 21l6 4l39 35q29 25 49 24q25 0 42 -27.5t17 -43.5q0 -45 -78.5 -101.5t-141 -78t-107.5 -27.5t-92 -6q-227 0 -342 164v-97l-5 -28q-10 -47 -67 -48q-18 0 -44 15.5t-26 58.5v117q-43 -86 -131 -134t-194 -48 q-147 0 -252 82t-155 199.5t-50 267.5zM229 510l7 -66q41 -272 152.5 -296.5t141 -26.5t31.5 -2q131 0 218 104.5t87 296.5q0 197 -60.5 306.5t-143 129t-119.5 19.5q-125 0 -209 -97.5t-94.5 -195.5t-10.5 -127v-45zM999 600h631l-6 41q-27 162 -107.5 247t-197.5 85 q-39 0 -81 -10.5t-97.5 -42t-98.5 -102t-43 -171.5v-47z" />
<glyph unicode="&#xe7;" horiz-adv-x="905" d="M82 541q0 256 139 411.5t346 155.5q106 0 191.5 -32t85.5 -83q0 -25 -19.5 -48t-52.5 -23q-20 0 -37 8l-28 14l-15 6l-24 11q-47 20 -88 20q-20 -2 -33 -2q-119 0 -202 -94t-95 -186.5t-12 -115v-34.5v-44.5t18 -114.5t107.5 -185t199.5 -88q37 0 78 12l39 16l18 9l23 8 l31 14q18 8 51 -6t33 -57q0 -29 -18.5 -49.5t-41 -32t-74 -29.5t-137.5 -18q-186 0 -314 117.5t-146.5 237.5t-20.5 144.5t-2 57.5zM358 -213q5 33 23 49l117 123h127l-154 -195q-18 -25 -51 -30q-25 -4 -43.5 12t-18.5 41z" />
<glyph unicode="&#xe8;" horiz-adv-x="1087" d="M82 549q0 47 16.5 159.5t114.5 232.5t201.5 143.5t150.5 23.5q168 0 291 -119t140.5 -234.5t20.5 -137t3 -48.5q0 -51 -22 -68.5t-83 -17.5h-675q0 -51 23.5 -142t108.5 -160.5t206 -69.5q35 0 81 8t91 31.5t106 78.5l25 23q18 18 51 22q31 4 51.5 -18.5t20.5 -56.5 q0 -31 -36 -67t-114 -80t-150.5 -58t-132.5 -14q-188 0 -317 120.5t-150.5 254.5t-21.5 194zM238 602h630l-4 35q-12 84 -35.5 143.5t-61.5 105.5t-93.5 71.5t-118.5 25.5q-74 0 -139.5 -36t-98 -90t-50 -102t-25.5 -106zM319 1364q0 45 29 56.5t45 11.5q11 -1 27 -5 l295 -114q31 -14 40 -33.5t9 -36.5q0 -49 -43 -61q-12 -6 -29 -6q-12 0 -28 6l-295 112q-27 12 -38.5 33t-11.5 37z" />
<glyph unicode="&#xe9;" horiz-adv-x="1087" d="M82 549q0 47 16.5 159.5t114.5 232.5t201.5 143.5t150.5 23.5q168 0 291 -119t140.5 -234.5t20.5 -137t3 -48.5q0 -51 -22 -68.5t-83 -17.5h-675q0 -51 23.5 -142t108.5 -160.5t206 -69.5q35 0 81 8t91 31.5t106 78.5l25 23q18 18 51 22q31 4 51.5 -18.5t20.5 -56.5 q0 -31 -36 -67t-114 -80t-150.5 -58t-132.5 -14q-188 0 -317 120.5t-150.5 254.5t-21.5 194zM238 602h630l-4 35q-12 84 -35.5 143.5t-61.5 105.5t-93.5 71.5t-118.5 25.5q-74 0 -139.5 -36t-98 -90t-50 -102t-25.5 -106zM326 1245q0 14 10 36t39 32l295 114q20 4 28 5h19 q8 -4 30.5 -12.5t22.5 -55.5q0 -14 -10 -35.5t-39 -32.5l-295 -114q-16 -6 -31 -6q-12 0 -40.5 13t-28.5 56z" />
<glyph unicode="&#xea;" horiz-adv-x="1087" d="M82 549q0 47 16.5 159.5t114.5 232.5t201.5 143.5t150.5 23.5q168 0 291 -119t140.5 -234.5t20.5 -137t3 -48.5q0 -51 -22 -68.5t-83 -17.5h-675q0 -51 23.5 -142t108.5 -160.5t206 -69.5q35 0 81 8t91 31.5t106 78.5l25 23q18 18 51 22q31 4 51.5 -18.5t20.5 -56.5 q0 -31 -36 -67t-114 -80t-150.5 -58t-132.5 -14q-188 0 -317 120.5t-150.5 254.5t-21.5 194zM229 1247q0 12 10 34t37 34l226 88q14 6 25.5 8t17.5 4l41 -14l225 -84q45 -16 45 -66q0 -18 -15.5 -46.5t-62.5 -28.5q-12 0 -28 6l-207 86l-213 -86q-8 -4 -29 -4q-18 0 -45 10 t-27 59zM238 602h630l-4 35q-12 84 -35.5 143.5t-61.5 105.5t-93.5 71.5t-118.5 25.5q-74 0 -139.5 -36t-98 -90t-50 -102t-25.5 -106z" />
<glyph unicode="&#xeb;" horiz-adv-x="1087" d="M82 549q0 47 16.5 159.5t114.5 232.5t201.5 143.5t150.5 23.5q168 0 291 -119t140.5 -234.5t20.5 -137t3 -48.5q0 -51 -22 -68.5t-83 -17.5h-675q0 -51 23.5 -142t108.5 -160.5t206 -69.5q35 0 81 8t91 31.5t106 78.5l25 23q18 18 51 22q31 4 51.5 -18.5t20.5 -56.5 q0 -31 -36 -67t-114 -80t-150.5 -58t-132.5 -14q-188 0 -317 120.5t-150.5 254.5t-21.5 194zM238 602h630l-4 35q-12 84 -35.5 143.5t-61.5 105.5t-93.5 71.5t-118.5 25.5q-74 0 -139.5 -36t-98 -90t-50 -102t-25.5 -106zM258 1276q0 41 28.5 69.5t69.5 28.5t68 -28.5 t27 -67.5q0 -41 -28 -68.5t-65 -27.5q-43 0 -71.5 26.5t-28.5 67.5zM637 1276q0 41 26.5 69.5t67.5 28.5q39 0 68.5 -27.5t29.5 -68.5t-28.5 -68.5t-69.5 -27.5t-67.5 26.5t-26.5 67.5z" />
<glyph unicode="&#xec;" horiz-adv-x="378" d="M-35 1364q0 45 29 56.5t45 11.5q11 -1 27 -5l294 -114q31 -14 40.5 -33.5t9.5 -36.5q0 -49 -43 -61q-12 -6 -29 -6q-12 0 -29 6l-295 112q-29 12 -39 33t-10 37zM121 53v985q0 31 21.5 50.5t50.5 19.5t48 -19.5t19 -50.5v-985q0 -27 -19.5 -49t-50.5 -22q-29 0 -49 22 t-20 49z" />
<glyph unicode="&#xed;" horiz-adv-x="378" d="M-29 1245q0 14 10 36t39 32l295 114q20 4 29 5h18q8 -4 31 -12.5t23 -55.5q0 -14 -10.5 -35.5t-38.5 -32.5l-295 -114q-16 -6 -31 -6q-12 0 -41 13t-29 56zM121 53v985q0 31 21.5 50.5t50.5 19.5t48 -19.5t19 -50.5v-985q0 -27 -19.5 -49t-50.5 -22q-29 0 -49 22t-20 49z " />
<glyph unicode="&#xee;" horiz-adv-x="378" d="M-125 1247q0 12 9 34t38 34l225 88q14 6 25.5 8t17.5 4l41 -14l226 -84q45 -16 45 -66q0 -18 -15.5 -46.5t-62.5 -28.5q-12 0 -29 6l-207 86l-213 -86q-8 -4 -28 -4q-18 0 -45 10t-27 59zM121 53v985q0 31 21.5 50.5t50.5 19.5t48 -19.5t19 -50.5v-985q0 -27 -19.5 -49 t-50.5 -22q-29 0 -49 22t-20 49z" />
<glyph unicode="&#xef;" horiz-adv-x="378" d="M-96 1276q0 41 28.5 69.5t69.5 28.5t67.5 -28.5t26.5 -67.5q0 -41 -27.5 -68.5t-64.5 -27.5q-43 0 -71.5 26.5t-28.5 67.5zM121 53v985q0 31 21.5 50.5t50.5 19.5t48 -19.5t19 -50.5v-985q0 -27 -19.5 -49t-50.5 -22q-29 0 -49 22t-20 49zM283 1276q0 41 26.5 69.5 t67.5 28.5q39 0 68.5 -27.5t29.5 -68.5t-28.5 -68.5t-69.5 -27.5t-67.5 26.5t-26.5 67.5z" />
<glyph unicode="&#xf1;" horiz-adv-x="1110" d="M141 47v993q0 29 23.5 50.5t48.5 21.5q31 0 50.5 -23.5t19.5 -50.5v-84q68 102 156.5 127t142.5 25q18 0 113.5 -14.5t184.5 -124t89 -281.5v-639q0 -29 -20.5 -49.5t-51.5 -20.5q-27 0 -47.5 20.5t-20.5 49.5v649q0 113 -57 175.5t-111.5 85t-107.5 22.5 q-106 0 -189 -81t-83 -196v-655q0 -29 -19.5 -48t-48.5 -19q-31 0 -51.5 18t-20.5 49zM264 1270q0 29 21.5 50t52.5 21l432 -2q31 0 52.5 -21.5t21.5 -49.5q0 -29 -24.5 -50.5t-51.5 -21.5l-428 2q-29 0 -52.5 21.5t-23.5 50.5z" />
<glyph unicode="&#xf2;" horiz-adv-x="1103" d="M82 547l6 92q29 217 159 343t306 126q174 0 304 -126t147.5 -258t17.5 -179q0 -45 -15.5 -161t-112.5 -237.5t-194.5 -144t-148.5 -22.5q-176 0 -306 126.5t-157 346.5zM236 547l2 -70q16 -156 79.5 -247t135 -109.5t104.5 -18.5q121 0 206 97.5t95 197t10 119v29.5v24 q0 14 -11 119t-95 201t-207 96q-31 0 -102.5 -18.5t-135 -107.5t-77.5 -247q-4 -16 -4 -35.5v-29.5zM328 1364q0 45 28.5 56.5t44.5 11.5q11 -1 27 -5l295 -114q31 -14 40 -33.5t9 -36.5q0 -49 -43 -61q-12 -6 -29 -6q-12 0 -28 6l-295 112q-27 12 -38 33t-11 37z" />
<glyph unicode="&#xf3;" horiz-adv-x="1103" d="M82 547l6 92q29 217 159 343t306 126q174 0 304 -126t147.5 -258t17.5 -179q0 -45 -15.5 -161t-112.5 -237.5t-194.5 -144t-148.5 -22.5q-176 0 -306 126.5t-157 346.5zM236 547l2 -70q16 -156 79.5 -247t135 -109.5t104.5 -18.5q121 0 206 97.5t95 197t10 119v29.5v24 q0 14 -11 119t-95 201t-207 96q-31 0 -102.5 -18.5t-135 -107.5t-77.5 -247q-4 -16 -4 -35.5v-29.5zM334 1245q0 14 10 36t39 32l295 114q20 4 29 5h18q8 -4 30.5 -12.5t22.5 -55.5q0 -14 -10 -35.5t-39 -32.5l-295 -114q-16 -6 -31 -6q-12 0 -40.5 13t-28.5 56z" />
<glyph unicode="&#xf4;" horiz-adv-x="1103" d="M82 547l6 92q29 217 159 343t306 126q174 0 304 -126t147.5 -258t17.5 -179q0 -45 -15.5 -161t-112.5 -237.5t-194.5 -144t-148.5 -22.5q-176 0 -306 126.5t-157 346.5zM236 547l2 -70q16 -156 79.5 -247t135 -109.5t104.5 -18.5q121 0 206 97.5t95 197t10 119v29.5v24 q0 14 -11 119t-95 201t-207 96q-31 0 -102.5 -18.5t-135 -107.5t-77.5 -247q-4 -16 -4 -35.5v-29.5zM238 1247q0 12 10 34t37 34l225 88q14 6 25.5 8t17.5 4l41 -14l225 -84q45 -16 45 -66q0 -18 -15 -46.5t-63 -28.5q-12 0 -28 6l-207 86l-213 -86q-8 -4 -29 -4 q-18 0 -44.5 10t-26.5 59z" />
<glyph unicode="&#xf5;" horiz-adv-x="1103" d="M82 547l6 92q29 217 159 343t306 126q174 0 304 -126t147.5 -258t17.5 -179q0 -45 -15.5 -161t-112.5 -237.5t-194.5 -144t-148.5 -22.5q-176 0 -306 126.5t-157 346.5zM236 547l2 -70q16 -156 79.5 -247t135 -109.5t104.5 -18.5q121 0 206 97.5t95 197t10 119v29.5v24 q0 14 -11 119t-95 201t-207 96q-31 0 -102.5 -18.5t-135 -107.5t-77.5 -247q-4 -16 -4 -35.5v-29.5zM260 1270q0 29 21.5 50t52.5 21l432 -2q31 0 52.5 -21.5t21.5 -49.5q0 -29 -24.5 -50.5t-51.5 -21.5l-428 2q-29 0 -52.5 21.5t-23.5 50.5z" />
<glyph unicode="&#xf6;" horiz-adv-x="1103" d="M82 547l6 92q29 217 159 343t306 126q174 0 304 -126t147.5 -258t17.5 -179q0 -45 -15.5 -161t-112.5 -237.5t-194.5 -144t-148.5 -22.5q-176 0 -306 126.5t-157 346.5zM236 547l2 -70q16 -156 79.5 -247t127 -107.5t74.5 -18.5t38 -2q119 0 205 97.5t96 197t10 119v29.5 v24q0 14 -11 119t-95 201t-207 96q-31 0 -102.5 -18.5t-135 -107.5t-77.5 -247q-4 -16 -4 -35.5v-29.5zM268 1343q0 39 28 67t69 28q39 0 67.5 -29t28.5 -68q0 -37 -27.5 -65.5t-71.5 -28.5q-39 0 -66.5 27.5t-27.5 68.5zM645 1341q0 43 29 68q27 29 69 29q39 0 66 -28 t27 -69t-28 -67.5t-67 -26.5t-67.5 26.5t-28.5 67.5z" />
<glyph unicode="&#xf8;" horiz-adv-x="1101" d="M68 0q2 28 22 55l94 121q-102 170 -102 371q0 92 36 226t156.5 234.5t274.5 100.5q129 0 246 -72l43 -28l96 122q18 20 47 25q18 0 38.5 -12.5t20.5 -44.5q0 -25 -16 -45l-113 -144q80 -119 93.5 -202.5t15.5 -125.5t2 -46q0 -207 -104.5 -355.5t-210 -174t-158.5 -25.5 q-170 0 -279 112l-98 -123q-16 -23 -45 -26q-27 0 -43 16t-16 41zM236 532q0 -125 47 -231l469 596q-76 88 -199 88q-33 0 -102.5 -17.5t-133 -106.5t-71.5 -177t-9 -113.5t-1 -38.5zM346 190q57 -57 114.5 -70.5t98.5 -13.5q184 0 246.5 158t62.5 281q0 41 -7 102.5 t-42 143.5z" />
<glyph unicode="&#xf9;" horiz-adv-x="1116" d="M141 401v635q0 33 23 51q18 20 47 21q31 0 49 -23q20 -18 21 -49v-637q0 -135 55 -204.5t132 -80t91 -10.5q16 0 146.5 18.5t130.5 276.5v637q0 31 20 49q18 23 49 23q29 0 49.5 -21.5t20.5 -50.5v-635q0 -203 -106.5 -311t-309.5 -108q-205 0 -311.5 108t-106.5 311z M334 1364q0 45 28.5 56.5t45.5 11.5q10 -1 26 -5l295 -114q31 -14 40 -33.5t9 -36.5q0 -49 -43 -61q-12 -6 -28 -6q-12 0 -29 6l-295 112q-27 12 -38 33t-11 37z" />
<glyph unicode="&#xfa;" horiz-adv-x="1116" d="M141 401v635q0 33 23 51q18 20 47 21q31 0 49 -23q20 -18 21 -49v-637q0 -135 55 -204.5t132 -80t91 -10.5q16 0 146.5 18.5t130.5 276.5v637q0 31 20 49q18 23 49 23q29 0 49.5 -21.5t20.5 -50.5v-635q0 -203 -106.5 -311t-309.5 -108q-205 0 -311.5 108t-106.5 311z M340 1245q0 14 10 36t39 32l295 114q20 4 29 5h18q8 -4 30.5 -12.5t22.5 -55.5q0 -14 -10 -35.5t-39 -32.5l-295 -114q-16 -6 -30 -6q-12 0 -41 13t-29 56z" />
<glyph unicode="&#xfb;" horiz-adv-x="1116" d="M141 401v635q0 33 23 51q18 20 47 21q31 0 49 -23q20 -18 21 -49v-637q0 -135 55 -204.5t132 -80t91 -10.5q16 0 146.5 18.5t130.5 276.5v637q0 31 20 49q18 23 49 23q29 0 49.5 -21.5t20.5 -50.5v-635q0 -203 -106.5 -311t-309.5 -108q-205 0 -311.5 108t-106.5 311z M244 1247q0 12 10 34t37 34l225 88q14 6 25.5 8t17.5 4l41 -14l225 -84q45 -16 45 -66q0 -18 -15 -46.5t-62 -28.5q-12 0 -29 6l-207 86l-213 -86q-8 -4 -29 -4q-18 0 -44.5 10t-26.5 59z" />
<glyph unicode="&#xfc;" horiz-adv-x="1116" d="M141 401v635q0 33 23 51q18 20 47 21q31 0 49 -23q20 -18 21 -49v-637q0 -135 55 -204.5t132 -80t91 -10.5q16 0 146.5 18.5t130.5 276.5v637q0 31 20 49q18 23 49 23q29 0 49.5 -21.5t20.5 -50.5v-635q0 -203 -106.5 -311t-309.5 -108q-205 0 -311.5 108t-106.5 311z M276 1341q0 45 28 72t69 27q39 0 66.5 -28t27.5 -66q0 -37 -28.5 -68t-65.5 -31q-39 0 -68 26.5t-29 67.5zM649 1343q0 37 28 67t71 30q39 0 66.5 -28t27.5 -66q0 -41 -30 -70t-67 -29q-39 0 -67.5 28.5t-28.5 67.5z" />
<glyph unicode="&#xff;" horiz-adv-x="864" d="M20 1036q0 12 12.5 42t59.5 30q18 0 38 -10.5t30 -40.5l274 -832l260 824q18 59 70 59q8 0 40 -10.5t32 -57.5q0 -6 -5 -22l-471 -1399q-23 -68 -71 -68l-23 5q-47 16 -47 65q0 16 4 25l139 377l-337 993q-4 12 -5 20zM147 1276q0 41 29 69.5t70 28.5t67.5 -28.5 t26.5 -67.5q0 -41 -27.5 -68.5t-64.5 -27.5q-43 0 -72 26.5t-29 67.5zM526 1276q0 41 27 69.5t68 28.5q39 0 68.5 -27.5t29.5 -68.5t-28.5 -68.5t-69.5 -27.5t-68 26.5t-27 67.5z" />
<glyph unicode="&#x152;" horiz-adv-x="1908" d="M82 731q0 92 28.5 259t159.5 314.5t257 169t175 21.5q150 0 273 -70.5t186 -189.5v166q0 31 21.5 52.5t54.5 21.5h500q29 0 48 -19.5t19 -46.5t-19.5 -45t-47.5 -18h-439v-545h422q27 0 46.5 -19.5t19.5 -46.5q0 -29 -21.5 -47t-46.5 -18h-424v-543h465q31 0 49.5 -19.5 t18.5 -44.5q0 -27 -19.5 -45t-48.5 -18h-530q-70 0 -70 70v184q-68 -127 -193.5 -198.5t-271.5 -71.5q-123 0 -235.5 51t-197.5 150.5t-132 241.5t-47 304zM233 735q0 -291 130.5 -454.5t332.5 -163.5q43 0 156 23.5t214 180t101 416.5q0 295 -130 459t-330 164h-38.5 t-119 -20.5t-210 -181.5t-106.5 -423z" />
<glyph unicode="&#x153;" horiz-adv-x="1861" d="M82 543q0 33 2 63.5t19.5 124.5t92 195.5t171 140.5t182.5 39q111 0 207 -54.5t159 -152.5l25 -45l23 39q135 217 364 217q170 0 290 -100.5t161 -286.5l12 -61l2 -21l2 -53q0 -55 -19.5 -74.5t-82.5 -19.5h-672q0 -35 6 -67t11 -52.5t31 -83t109 -117.5t187 -55 q115 0 182.5 46t106.5 82t73 29q23 -4 39.5 -24.5t16.5 -42.5q0 -16 -7.5 -30.5t-24.5 -33t-58 -49t-128 -71.5t-210 -41q-119 0 -222.5 56t-166.5 155l-23 38l-33 -51q-143 -195 -368 -194q-102 0 -195.5 48t-166.5 154.5t-84 198.5t-12 116.5t-1 37.5zM231 555l2 -72 q10 -104 38 -173.5t94.5 -137.5t185.5 -68q168 0 223 100.5t71.5 158t16.5 135.5q0 418 -140 456.5t-183 38.5q-117 0 -197 -92t-104 -270zM1018 606h627l-3 41q-14 129 -72.5 211t-133 102.5t-109.5 20.5q-115 0 -195.5 -87t-107.5 -253z" />
<glyph unicode="&#x178;" horiz-adv-x="1005" d="M12 1409q-8 29 6.5 52.5t44.5 27.5q31 6 60 -16l20 -23l361 -612l360 612q6 14 21 23q27 23 59 16q29 -4 43 -27.5t6 -52.5l-8 -20l-412 -697v-637q0 -51 -27.5 -62t-43.5 -11q-49 0 -66 45l-4 28v637l-412 697zM217 1659q0 41 28.5 69.5t69.5 28.5t68 -28.5t27 -67.5 q0 -41 -28 -68.5t-65 -27.5q-43 0 -71.5 26.5t-28.5 67.5zM596 1659q0 41 26.5 69.5t67.5 28.5q39 0 68.5 -27.5t29.5 -68.5t-28.5 -68.5t-69.5 -27.5t-67.5 26.5t-26.5 67.5z" />
<glyph unicode="&#x2c6;" horiz-adv-x="618" d="M-4 1247q0 12 10 34t37 34l225 88q14 6 25.5 8t17.5 4l41 -14l226 -84q45 -16 45 -66q0 -18 -15.5 -46.5t-62.5 -28.5q-12 0 -29 6l-207 86l-213 -86q-8 -4 -28 -4q-18 0 -45 10t-27 59z" />
<glyph unicode="&#x2dc;" horiz-adv-x="575" d="M-4 1270q0 29 21.5 50t52.5 21l432 -2q31 0 52 -21.5t21 -49.5q0 -29 -24.5 -50.5t-50.5 -21.5l-428 2q-29 0 -52.5 21.5t-23.5 50.5z" />
<glyph unicode="&#x2000;" horiz-adv-x="907" />
<glyph unicode="&#x2001;" horiz-adv-x="1815" />
<glyph unicode="&#x2002;" horiz-adv-x="907" />
<glyph unicode="&#x2003;" horiz-adv-x="1815" />
<glyph unicode="&#x2004;" horiz-adv-x="605" />
<glyph unicode="&#x2005;" horiz-adv-x="453" />
<glyph unicode="&#x2006;" horiz-adv-x="302" />
<glyph unicode="&#x2007;" horiz-adv-x="302" />
<glyph unicode="&#x2008;" horiz-adv-x="226" />
<glyph unicode="&#x2009;" horiz-adv-x="363" />
<glyph unicode="&#x200a;" horiz-adv-x="100" />
<glyph unicode="&#x2010;" horiz-adv-x="710" d="M82 537q0 65 57 65h422q29 0 48.5 -19.5t19.5 -45.5q0 -27 -20.5 -46.5t-47.5 -19.5h-420q-23 0 -41 18.5t-18 47.5z" />
<glyph unicode="&#x2011;" horiz-adv-x="710" d="M82 537q0 65 57 65h422q29 0 48.5 -19.5t19.5 -45.5q0 -27 -20.5 -46.5t-47.5 -19.5h-420q-23 0 -41 18.5t-18 47.5z" />
<glyph unicode="&#x2012;" horiz-adv-x="710" d="M82 537q0 65 57 65h422q29 0 48.5 -19.5t19.5 -45.5q0 -27 -20.5 -46.5t-47.5 -19.5h-420q-23 0 -41 18.5t-18 47.5z" />
<glyph unicode="&#x2013;" horiz-adv-x="1093" d="M66 688q0 20 14 34.5t37 14.5h860q18 0 33.5 -15t15.5 -36q0 -23 -14.5 -37t-34.5 -14h-862q-49 0 -49 53z" />
<glyph unicode="&#x2014;" horiz-adv-x="1091" d="M102 397v144h887v-144h-887z" />
<glyph unicode="&#x2018;" horiz-adv-x="362" d="M18 1163q1 13 7 29l120 268q23 43 70 43q16 0 44 -14t28 -62q0 -16 -6 -28l-125 -271q-18 -41 -68 -41q-14 0 -42 13.5t-28 62.5z" />
<glyph unicode="&#x2019;" horiz-adv-x="362" d="M18 1163q1 13 7 29l120 268q23 43 70 43q16 0 44 -14t28 -62q0 -16 -6 -28l-125 -271q-18 -41 -68 -41q-14 0 -42 13.5t-28 62.5z" />
<glyph unicode="&#x201a;" horiz-adv-x="362" d="M18 -193q1 13 7 29l120 268q23 43 70 43q16 0 44 -14t28 -61q0 -16 -6 -29l-125 -270q-18 -41 -68 -41q-14 0 -42 13t-28 62z" />
<glyph unicode="&#x201c;" horiz-adv-x="632" d="M31 1163q0 13 6 29l121 268q23 43 69 43q16 0 44 -14t28 -62q0 -16 -6 -28l-125 -271q-18 -41 -68 -41q-14 0 -41.5 13.5t-27.5 62.5zM289 1163q0 13 6 29l123 268q20 43 67 43q16 0 44 -14t28 -62q0 -16 -6 -28l-125 -271q-18 -41 -68 -41q-14 0 -41.5 13.5t-27.5 62.5z " />
<glyph unicode="&#x201d;" horiz-adv-x="632" d="M31 1163q0 13 6 29l121 268q23 43 69 43q16 0 44 -14t28 -62q0 -16 -6 -28l-125 -271q-18 -41 -68 -41q-14 0 -41.5 13.5t-27.5 62.5zM289 1163q0 13 6 29l123 268q20 43 67 43q16 0 44 -14t28 -62q0 -16 -6 -28l-125 -271q-18 -41 -68 -41q-14 0 -41.5 13.5t-27.5 62.5z " />
<glyph unicode="&#x201e;" horiz-adv-x="620" d="M18 -193q1 13 7 29l120 268q23 43 70 43q16 0 44 -14t28 -61q0 -16 -6 -29l-125 -270q-18 -41 -68 -41q-14 0 -42 13t-28 62zM276 -193q1 13 7 29l123 268q20 43 67 43q16 0 44 -14t28 -59q0 -14 -6 -31l-125 -270q-18 -41 -68 -41q-14 0 -42 13t-28 62z" />
<glyph unicode="&#x2022;" horiz-adv-x="757" d="M109 737q0 113 78.5 192t191.5 79q115 0 192.5 -80t77.5 -191q0 -113 -58.5 -171t-107.5 -78.5t-104 -20.5q-113 0 -191.5 78.5t-78.5 191.5z" />
<glyph unicode="&#x2026;" horiz-adv-x="1105" d="M86 82q0 41 28.5 68.5t69.5 27.5q43 0 71 -27.5t28 -68.5q0 -43 -28 -70.5t-71 -27.5q-41 0 -69.5 28.5t-28.5 69.5zM455 82q0 41 28.5 68.5t69.5 27.5q43 0 70.5 -27.5t27.5 -68.5q0 -43 -27.5 -70.5t-70.5 -27.5q-41 0 -69.5 28.5t-28.5 69.5zM823 82q0 41 29 69.5 t70 28.5t69.5 -28.5t28.5 -69.5t-28.5 -69.5t-69.5 -28.5t-70 28.5t-29 69.5z" />
<glyph unicode="&#x202f;" horiz-adv-x="363" />
<glyph unicode="&#x2039;" horiz-adv-x="489" d="M82 549q0 12 18 43l183 321q16 31 49 39q29 10 51.5 -6t22.5 -47q0 -27 -13 -49l-186 -307l184 -307q16 -27 17 -48q0 -39 -43 -55q-47 -18 -84 45l-170 307q-29 49 -29 64z" />
<glyph unicode="&#x203a;" horiz-adv-x="489" d="M82 895q0 39 43 55q49 18 84 -45l170 -305q29 -51 29 -65q0 -12 -19 -43l-180 -322q-20 -31 -51 -39q-29 -10 -51.5 6.5t-22.5 46.5q0 27 12 49l187 308l-185 307q-16 27 -16 47z" />
<glyph unicode="&#x205f;" horiz-adv-x="453" />
<glyph unicode="&#x2122;" horiz-adv-x="1585" d="M106 1430q0 16 15 30.5t33 14.5h407q47 0 47 -50q0 -18 -15 -31.5t-34 -13.5h-151v-665q0 -23 -15.5 -38t-38.5 -15q-18 0 -33.5 15t-15.5 38v665h-153q-18 0 -32 15.5t-14 34.5zM592 705l2 22l115 694q10 63 73 64q63 0 80 -60l170 -585l170 585q18 59 80 60 q63 0 74 -64l117 -694v-22q0 -12 -12.5 -27.5t-41.5 -15.5q-6 0 -25.5 7t-25.5 42l-94 635l-189 -646q-16 -41 -51 -41q-4 0 -23.5 6.5t-29.5 34.5l-190 646l-95 -635q-6 -37 -32 -45q-25 -8 -48.5 4t-23.5 35z" />
<glyph unicode="&#xe000;" horiz-adv-x="1105" d="M0 0v1106h1106v-1106h-1106z" />
</font>
</defs>
</svg>
